<svg height='300px' width='300px'  fill="#000000" xmlns="http://www.w3.org/2000/svg" xmlns:xlink="http://www.w3.org/1999/xlink" version="1.1" x="0px" y="0px" viewBox="0 0 100 100" enable-background="new 0 0 100 100" xml:space="preserve"><g><g><path fill="none" d="M17.144,44.158c0.322,5.634,1.795,11.139,1.932,16.808C19.3,55.268,18.087,49.733,17.144,44.158z"></path><path fill="none" d="M49.998,36.26c-2.458,0.01-4.623,2.721-4.738,6.078c3.237,0,6.369,0,9.505,0    C54.606,38.923,52.453,36.25,49.998,36.26z"></path><path fill="none" d="M17.052,42.534c-0.146-4.646,1.731-8.237,4.094-11.809C17.85,32.167,15.422,38.919,17.052,42.534z"></path><path fill="none" d="M14.862,42.369c0.345-4.948,0.699-9.701,5.047-12.956c-7.148-1.675-11.32,7.231-9.448,13.109    C12.002,42.478,13.491,42.665,14.862,42.369z M13.023,35.874c0.804,0.086,1.264,0.502,1.264,1.231    c0.001,0.717-0.413,1.215-1.177,1.223c-0.753,0.008-1.195-0.432-1.201-1.182C11.904,36.397,12.394,36.028,13.023,35.874z     M12.941,39.059c0.606-0.017,0.93,0.378,1.018,0.986c-0.12,0.684-0.472,1.222-1.217,1.214c-0.608-0.006-0.906-0.481-0.878-1.078    C11.895,39.517,12.265,39.078,12.941,39.059z"></path><path fill="none" d="M11.084,64.078c-0.24-2.287-0.479-4.575-0.719-6.862C10.061,59.518,9.972,61.871,11.084,64.078z"></path><path fill="none" d="M45.392,51.894c1.674,0.77,2.99,2.174,4.806,2.676c0.084,0.023,0.211-0.084,0.309-0.144    c1.385-0.846,2.769-1.695,4.154-2.541c0.382-0.233,0.542-0.572,0.541-1.016c-0.006-2.248-0.003-4.495-0.003-6.866    c-3.509,0-6.785,0-10.39,0c0,2.114-0.013,4.075,0.007,6.035C44.824,50.703,44.573,51.517,45.392,51.894z M48.126,45.294    c0.383-0.774,1.068-1.018,1.886-1.03c0.872,0.012,1.6,0.298,1.943,1.178c0.306,0.786,0.227,1.576-0.551,1.986    c-0.823,0.434-0.693,1.106-0.724,1.787c-0.02,0.433-0.141,0.847-0.666,0.852c-0.526,0.005-0.71-0.413-0.666-0.838    c0.094-0.904-0.23-1.482-0.989-2.019C47.736,46.77,47.784,45.983,48.126,45.294z"></path><path fill="none" d="M9.304,63.459c-0.46-2.296-0.602-4.605-0.437-6.938c0.055-0.772,0.171-1.621-1.233-1.227    c0.085,3.362,0.298,6.712,0.916,10.02c0.212,1.134,1.01,1.464,2.261,0.806C9.721,65.473,9.509,64.484,9.304,63.459z"></path><path fill="none" d="M9.74,53.561c-0.277-1.727-0.531-3.308-0.814-5.07c-2.676,0.333-1.415,2.337-1.608,3.532    C7.035,53.771,8.231,53.822,9.74,53.561z"></path><path fill="none" d="M15.661,45.108c-0.076-0.584-0.155-1.239-0.951-1.219c-1.429,0.036-2.876-0.237-4.551,0.159    c1.554,11.688,3.099,23.303,4.645,34.931c1.624,0.257,3.054,0.028,4.756-0.096c-0.599-5.261-1.323-10.323-1.718-15.411    C17.367,57.316,16.453,51.221,15.661,45.108z M11.665,47.663c0.054-0.761,0.406-1.376,1.303-1.293    c0.775,0.072,1.036,0.64,1.074,1.311c-0.094,0.837-0.492,1.395-1.326,1.337C11.96,48.967,11.614,48.376,11.665,47.663z     M12.632,52.878c0.038-0.69,0.392-1.257,1.142-1.284c0.763-0.027,1.18,0.513,1.152,1.22c-0.028,0.703-0.501,1.129-1.202,1.2    C13.031,53.91,12.594,53.564,12.632,52.878z M13.28,57.193c0.028-0.795,0.397-1.372,1.238-1.356    c0.747,0.014,1.14,0.563,1.134,1.275c-0.007,0.791-0.454,1.275-1.279,1.368C13.629,58.377,13.253,57.947,13.28,57.193z     M13.741,63.31c0.024-0.785,0.491-1.307,1.35-1.229c0.771,0.07,1.092,0.586,1.046,1.322c-0.048,0.754-0.483,1.136-1.235,1.164    C14.135,64.495,13.719,64.013,13.741,63.31z M14.646,68.418c0.005-0.659,0.292-1.088,1.015-1.137    c0.657,0.053,1.058,0.428,1.094,1.079c0.04,0.735-0.342,1.236-1.11,1.21C14.974,69.547,14.641,69.088,14.646,68.418z     M16.183,74.484c-0.741,0.097-1.2-0.362-1.228-1.109c-0.031-0.818,0.246-1.5,1.192-1.577c0.725-0.059,1.175,0.323,1.333,1.03    C17.267,73.586,17.071,74.368,16.183,74.484z"></path><path fill="none" d="M85.177,42.462c1.501,0,2.935,0,4.517,0c0.829-4.17,0.08-7.862-2.794-11.016    c-1.781-1.954-4.204-2.637-6.75-1.978C84.548,32.721,84.794,37.591,85.177,42.462z M87.185,41.251    c-0.734-0.068-1.142-0.595-1.096-1.313c0.038-0.588,0.474-0.954,1.076-0.878c0.659,0.084,0.985,0.54,0.993,1.209    C88.101,40.867,87.809,41.309,87.185,41.251z M86.825,35.883c0.741,0.058,1.214,0.44,1.271,1.171    c0.058,0.743-0.337,1.22-1.099,1.268c-0.765,0.048-1.206-0.401-1.265-1.125C85.673,36.455,86.117,36.034,86.825,35.883z"></path><path fill="none" d="M80.95,61.03c0.082-5.694,1.64-11.216,1.913-16.887C81.924,49.736,80.704,55.298,80.95,61.03z"></path><path fill="none" d="M78.741,30.622c2.59,3.69,4.298,7.321,4.397,11.567C84.325,38.082,82.168,32.251,78.741,30.622z"></path><path fill="none" d="M18.693,42.43c8.289,0,16.6,0,24.887,0c1.646-5.506,3.573-7.724,6.542-7.585    c3.144,0.147,4.981,2.333,6.285,7.66c8.081,0,16.11-0.009,24.139,0.01c1.162,0.003,1.143-0.716,1.091-1.519    c-0.22-3.366-1.534-6.33-3.549-8.953c-1.172-1.525-2.625-2.802-4.786-2.801c-15.548,0.01-31.095,0.01-46.643-0.007    c-0.855-0.001-1.593,0.213-2.298,0.669c-3.55,2.295-4.949,5.885-5.798,9.765C18.375,40.528,18.047,41.496,18.693,42.43z     M34.93,35.304c0.907-0.441,1.843-0.716,2.747-0.045c0.25,0.186,0.17,0.622-0.105,0.738c-0.989,0.415-1.948,0.356-2.866-0.253    C34.828,35.495,34.851,35.342,34.93,35.304z M28.897,33.454c0.639-0.045,1.692-0.206,1.627,0.732    c-0.073,1.064-1.197,0.504-1.852,0.692c-0.616-0.174-1.724,0.308-1.711-0.645C26.978,33.062,28.177,33.505,28.897,33.454z"></path><path fill="none" d="M39.93,19.072c6.741-0.545,13.506-0.7,20.221,0.059c4.715,0.533,6.295,1.952,6.372,6.046    c0.001,0.064,0.137,0.125,0.205,0.183c0.297-0.083,0.308-0.33,0.338-0.553c0.422-3.105-1.252-5.255-4.613-6.061    c-6.314-1.513-12.722-1.194-19.112-0.948c-2.073,0.08-4.153,0.568-6.182,1.067c-3.539,0.869-5.139,3.706-3.814,6.509    C34.21,20.81,35.623,19.42,39.93,19.072z"></path><path fill="none" d="M63.524,21.369c-1.339-0.756-2.828-1.097-4.349-1.178c-6.109-0.325-12.222-0.329-18.331,0.002    c-1.579,0.086-3.119,0.446-4.5,1.263c-1.119,0.662-2.109,3.058-1.588,4.137c0.617,1.277,1.285,2.336,3.197,2.225    c3.947-0.23,7.917-0.069,11.877-0.068c4.252,0,8.503,0.004,12.755-0.006c0.512-0.001,1.075,0.153,1.52-0.214    C65.956,26.004,65.643,22.567,63.524,21.369z"></path><path fill="none" d="M89.652,57.149c-0.237,2.314-0.475,4.629-0.712,6.943C90.014,61.865,89.972,59.516,89.652,57.149z"></path><path fill="none" d="M86.076,43.847c-1.161-0.077-1.606,0.347-1.78,1.533c-1.627,11.051-2.451,22.19-3.841,33.534    c0.956,0.059,1.712,0.033,2.439,0.164c1.677,0.301,2.644-0.101,2.636-2.051c-0.005-1.21,0.317-2.419,0.471-3.631    c0.895-7.037,1.622-14.097,2.83-21.091c0.474-2.746,0.775-5.499,0.782-8.442C88.372,43.864,87.22,43.923,86.076,43.847z     M83.931,74.488c-0.93-0.018-1.124-0.829-1.375-1.511c0.033-0.8,0.495-1.169,1.212-1.183c0.849-0.016,1.225,0.546,1.291,1.31    C85.127,73.898,84.797,74.504,83.931,74.488z M84.386,69.57c-0.763,0.037-1.161-0.454-1.128-1.194    c0.029-0.649,0.416-1.07,1.092-1.082c0.718-0.013,0.989,0.453,1.022,1.105C85.374,69.071,85.053,69.538,84.386,69.57z     M85.093,64.553c-0.857,0-1.248-0.522-1.214-1.344c0.032-0.764,0.484-1.166,1.237-1.135c0.769,0.031,1.078,0.562,1.186,1.256    C86.191,64.031,85.865,64.553,85.093,64.553z M85.692,58.452c-0.828,0.042-1.283-0.5-1.326-1.284    c-0.039-0.709,0.328-1.267,1.075-1.324c0.856-0.065,1.204,0.518,1.294,1.189C86.765,57.875,86.457,58.414,85.692,58.452z     M86.32,53.983c-0.83-0.009-1.277-0.546-1.221-1.347c0.044-0.632,0.482-1.015,1.132-1.073c0.75,0.145,1.125,0.627,1.152,1.324    C87.41,53.57,86.985,53.99,86.32,53.983z M87.171,49.027c-0.809-0.048-1.217-0.626-1.177-1.44    c0.036-0.732,0.417-1.238,1.186-1.224c0.891,0.016,1.113,0.686,1.193,1.399C88.277,48.51,87.927,49.072,87.171,49.027z"></path><path fill="none" d="M56.486,43.981c-0.344,2.131-0.056,4.152,0.103,6.163c0.121,1.537-0.495,2.322-1.725,3.357    c-3.434,2.888-6.397,2.746-9.77-0.054c-1.169-0.971-1.79-1.704-1.678-3.21c0.153-2.06,0.516-4.138,0.078-6.265    c-8.334,0-16.582,0-24.824,0c-0.196,0.627-0.012,1.12,0.086,1.63c0.684,3.544,1.362,7.101,1.555,10.703    c0.371,6.917,1.23,13.79,1.676,20.697c0.098,1.525,0.614,1.932,2.106,1.921c9.787-0.07,19.575-0.05,29.362-0.051    c7.574-0.001,15.147,0.006,22.721,0.025c0.934,0.002,1.684,0.013,1.788-1.281c0.436-5.449,1.056-10.885,1.409-16.339    c0.215-3.314,0.393-6.622,0.931-9.903c0.4-2.437,0.772-4.879,1.168-7.395C73.037,43.981,64.794,43.981,56.486,43.981z     M31.472,67.316c-0.74,0.119-1.517,0.804-2.21-0.061c-0.216-0.27-0.065-0.6,0.201-0.733c0.85-0.424,1.683-0.472,2.684,0.28    C31.73,67.127,31.613,67.294,31.472,67.316z M68.148,72.388c0.884-1.128,1.757-1.083,2.995-0.155    C70.019,72.866,69.18,73.316,68.148,72.388z M68.958,52.955c-0.41-0.018-0.832-0.152-0.831-0.669    c0.001-0.504,0.389-0.695,0.818-0.668c0.873,0.054,1.822-0.006,2.517,1.346C70.422,52.964,69.689,52.986,68.958,52.955z"></path><path fill="none" d="M91.042,48.561c-0.27,1.841-0.499,3.409-0.729,4.976c1.711,0.404,2.709-0.016,2.389-1.721    C92.49,50.689,93.802,48.657,91.042,48.561z"></path><path fill="none" d="M91.123,56.2c0.053,1.103,0.198,2.226,0.063,3.31c-0.286,2.289,0.03,4.764-1.842,6.69    c1.41,0.664,2.033-0.022,2.218-1.247c0.476-3.157,0.73-6.337,0.835-9.634C91.332,54.95,91.083,55.372,91.123,56.2z"></path><path d="M91.547,46.209c-0.089-0.007-0.166-0.149-0.353-0.328c0.037-0.831-0.018-1.772,0.138-2.677    c0.361-2.096,0.36-4.174-0.061-6.25c-1.059-5.223-4.057-9.229-10.107-9.165c-3.202,0.034-6.405-0.034-9.608-0.026    c-1.154,0.003-2.115,0.11-2.77-1.343c-0.358-0.795-0.572-1.406-0.421-2.203c0.317-1.681-0.209-3.089-1.345-4.325    c-1.413-1.537-3.245-2.154-5.22-2.592c-5.521-1.222-11.115-1.121-16.701-0.942c-2.846,0.091-5.677,0.598-8.441,1.324    c-2.934,0.77-5.283,3.152-5.024,5.518c0.198,1.806-0.216,3.181-1.308,4.52c-4.46,0.149-8.949-0.188-13.421,0.246    c-1.926,0.187-3.556,0.97-4.898,2.404c-3.2,3.422-3.89,7.547-3.428,11.998c0.13,1.258,0.397,2.506,0.065,3.841    c-0.514,0.045-0.968,0.111-1.423,0.118c-1.398,0.023-2.126,0.637-2.18,2.115c-0.058,1.58-0.102,3.165,0.251,4.694    c0.211,0.916,0.971,1.609,1.012,2.703c0.102,2.789,0.377,5.573,0.647,8.353c0.319,3.28,1.328,4.004,4.839,3.361    c0.236,3.88,0.879,7.605,1.393,11.347c0.089,0.646,0.106,1.416,1.009,1.324c1.273-0.129,1.452,0.723,1.592,1.605    c0.222,1.41,1.015,1.972,2.422,1.907c1.686-0.078,3.379-0.101,5.067-0.062c1.511,0.035,2.613-0.446,3.055-1.99    c0.31-1.083,1.045-1.322,2.116-1.319c14.391,0.031,28.782,0.033,43.172-0.004c1.102-0.003,1.782,0.308,2.091,1.36    c0.428,1.457,1.44,1.98,2.905,1.947c1.688-0.037,3.38-0.018,5.066,0.071c1.458,0.077,2.32-0.451,2.574-1.946    c0.11-0.649,0.133-1.596,1.086-1.525c1.416,0.105,1.43-0.791,1.555-1.753c0.47-3.624,0.97-7.243,1.461-10.864    c3.703,0.415,4.298-0.06,4.753-3.842c0.132-1.097,0.223-2.199,0.322-3.3c0.182-2.025-0.018-4.187,0.654-6.033    c0.506-1.393,0.903-2.716,0.917-4.147C95.041,45.901,94.552,46.458,91.547,46.209z M86.9,31.447    c2.874,3.153,3.623,6.846,2.794,11.016c-1.582,0-3.016,0-4.517,0c-0.383-4.871-0.629-9.741-5.027-12.994    C82.697,28.81,85.119,29.493,86.9,31.447z M83.138,42.188c-0.1-4.246-1.807-7.876-4.397-11.567    C82.168,32.251,84.325,38.082,83.138,42.188z M37.159,18.866c2.029-0.498,4.109-0.987,6.182-1.067    c6.39-0.247,12.798-0.566,19.112,0.948c3.361,0.806,5.035,2.955,4.613,6.061c-0.03,0.223-0.041,0.47-0.338,0.553    c-0.068-0.058-0.204-0.119-0.205-0.183c-0.077-4.095-1.657-5.514-6.372-6.046c-6.715-0.759-13.481-0.603-20.221-0.059    c-4.307,0.348-5.72,1.737-6.585,6.302C32.02,22.572,33.62,19.735,37.159,18.866z M64.105,27.53    c-0.445,0.367-1.008,0.213-1.52,0.214c-4.252,0.01-8.503,0.006-12.755,0.006c-3.96-0.001-7.93-0.161-11.877,0.068    c-1.912,0.111-2.581-0.947-3.197-2.225c-0.521-1.079,0.469-3.474,1.588-4.137c1.381-0.817,2.921-1.177,4.5-1.263    c6.109-0.331,12.221-0.327,18.331-0.002c1.521,0.081,3.01,0.421,4.349,1.178C65.643,22.567,65.956,26.004,64.105,27.53z     M24.361,29.905c0.705-0.456,1.443-0.67,2.298-0.669c15.548,0.016,31.095,0.017,46.643,0.007c2.161-0.001,3.615,1.276,4.786,2.801    c2.015,2.623,3.329,5.588,3.549,8.953c0.052,0.802,0.071,1.521-1.091,1.519c-8.029-0.019-16.059-0.01-24.139-0.01    c-1.304-5.328-3.141-7.513-6.285-7.66c-2.969-0.139-4.896,2.079-6.542,7.585c-8.287,0-16.598,0-24.887,0    c-0.647-0.934-0.318-1.902-0.13-2.761C19.412,35.789,20.811,32.2,24.361,29.905z M82.863,44.142    c-0.273,5.672-1.831,11.194-1.913,16.887C80.704,55.298,81.924,49.736,82.863,44.142z M44.81,44.002c3.605,0,6.882,0,10.39,0    c0,2.37-0.003,4.618,0.003,6.866c0.001,0.444-0.159,0.783-0.541,1.016c-1.385,0.846-2.769,1.695-4.154,2.541    c-0.098,0.06-0.226,0.167-0.309,0.144c-1.816-0.501-3.132-1.906-4.806-2.676c-0.819-0.376-0.568-1.191-0.575-1.857    C44.797,48.077,44.81,46.116,44.81,44.002z M45.26,42.338c0.115-3.357,2.28-6.068,4.738-6.078c2.455-0.01,4.608,2.663,4.766,6.078    C51.629,42.338,48.497,42.338,45.26,42.338z M17.052,42.534c-1.631-3.615,0.798-10.367,4.094-11.809    C18.783,34.296,16.907,37.888,17.052,42.534z M19.076,60.966c-0.137-5.669-1.609-11.174-1.932-16.808    C18.087,49.733,19.3,55.268,19.076,60.966z M19.909,29.413c-4.348,3.255-4.702,8.008-5.047,12.956    c-1.371,0.296-2.86,0.108-4.401,0.153C8.589,36.644,12.761,27.739,19.909,29.413z M7.317,52.022    c0.193-1.194-1.068-3.198,1.608-3.532c0.283,1.762,0.537,3.344,0.814,5.07C8.231,53.822,7.035,53.771,7.317,52.022z M8.55,65.315    c-0.618-3.308-0.831-6.658-0.916-10.02c1.404-0.395,1.287,0.454,1.233,1.227c-0.165,2.333-0.023,4.642,0.437,6.938    c0.205,1.025,0.417,2.014,1.508,2.661C9.56,66.779,8.762,66.448,8.55,65.315z M10.365,57.216c0.24,2.287,0.479,4.575,0.719,6.862    C9.972,61.871,10.061,59.518,10.365,57.216z M14.805,78.979c-1.546-11.628-3.091-23.243-4.645-34.931    c1.675-0.396,3.121-0.123,4.551-0.159c0.796-0.02,0.875,0.635,0.951,1.219c0.792,6.113,1.706,12.208,2.183,18.365    c0.395,5.088,1.118,10.15,1.718,15.411C17.859,79.008,16.429,79.236,14.805,78.979z M79.375,61.279    c-0.353,5.454-0.973,10.89-1.409,16.339c-0.104,1.294-0.854,1.283-1.788,1.281c-7.574-0.019-15.147-0.026-22.721-0.025    c-9.787,0.001-19.575-0.019-29.362,0.051c-1.492,0.011-2.008-0.396-2.106-1.921c-0.446-6.907-1.306-13.78-1.676-20.697    c-0.193-3.602-0.871-7.16-1.555-10.703c-0.099-0.51-0.282-1.004-0.086-1.63c8.242,0,16.489,0,24.824,0    c0.438,2.127,0.075,4.205-0.078,6.265c-0.112,1.506,0.508,2.239,1.678,3.21c3.372,2.8,6.335,2.942,9.77,0.054    c1.23-1.035,1.847-1.82,1.725-3.357c-0.159-2.011-0.447-4.032-0.103-6.163c8.308,0,16.55,0,24.988,0    c-0.396,2.516-0.768,4.957-1.168,7.395C79.768,54.657,79.59,57.964,79.375,61.279z M86.002,73.396    c-0.154,1.212-0.476,2.421-0.471,3.631c0.007,1.949-0.959,2.352-2.636,2.051c-0.728-0.131-1.484-0.105-2.439-0.164    c1.389-11.344,2.213-22.483,3.841-33.534c0.175-1.186,0.619-1.61,1.78-1.533c1.144,0.076,2.296,0.017,3.538,0.017    c-0.007,2.943-0.308,5.696-0.782,8.442C87.625,59.3,86.897,66.36,86.002,73.396z M89.652,57.149    c0.32,2.367,0.362,4.716-0.712,6.943C89.177,61.778,89.415,59.464,89.652,57.149z M91.562,64.953    c-0.185,1.225-0.808,1.912-2.218,1.247c1.872-1.926,1.556-4.401,1.842-6.69c0.135-1.084-0.01-2.206-0.063-3.31    c-0.04-0.829,0.209-1.251,1.273-0.881C92.292,58.616,92.037,61.795,91.562,64.953z M92.702,51.816    c0.32,1.705-0.677,2.125-2.389,1.721c0.23-1.567,0.459-3.135,0.729-4.976C93.802,48.657,92.49,50.689,92.702,51.816z"></path><path d="M68.945,51.617c-0.429-0.027-0.816,0.163-0.818,0.668c-0.001,0.518,0.42,0.651,0.831,0.669    c0.731,0.032,1.464,0.009,2.504,0.009C70.767,51.612,69.818,51.672,68.945,51.617z"></path><path d="M29.463,66.522c-0.266,0.133-0.418,0.463-0.201,0.733c0.693,0.865,1.47,0.18,2.21,0.061    c0.141-0.023,0.258-0.189,0.675-0.515C31.146,66.05,30.314,66.097,29.463,66.522z"></path><path d="M68.148,72.388c1.031,0.929,1.87,0.478,2.995-0.155C69.906,71.304,69.033,71.26,68.148,72.388z"></path><path d="M28.673,34.879c0.655-0.188,1.779,0.371,1.852-0.692c0.065-0.938-0.988-0.777-1.627-0.732    c-0.72,0.051-1.92-0.393-1.936,0.78C26.949,35.187,28.056,34.704,28.673,34.879z"></path><path d="M37.572,35.997c0.276-0.116,0.355-0.552,0.105-0.738c-0.904-0.671-1.84-0.396-2.747,0.045    c-0.079,0.038-0.102,0.191-0.225,0.44C35.624,36.352,36.583,36.411,37.572,35.997z"></path><path d="M83.769,71.794c-0.717,0.014-1.179,0.382-1.212,1.183c0.251,0.682,0.446,1.493,1.375,1.511    c0.865,0.017,1.196-0.59,1.128-1.384C84.994,72.339,84.617,71.778,83.769,71.794z"></path><path d="M87.18,46.363c-0.769-0.014-1.15,0.493-1.186,1.224c-0.04,0.813,0.368,1.392,1.177,1.44    c0.756,0.045,1.106-0.517,1.202-1.265C88.293,47.049,88.072,46.379,87.18,46.363z"></path><path d="M85.441,55.844c-0.747,0.057-1.114,0.615-1.075,1.324c0.043,0.784,0.498,1.325,1.326,1.284    c0.765-0.038,1.073-0.576,1.043-1.418C86.646,56.362,86.298,55.779,85.441,55.844z"></path><path d="M85.116,62.074c-0.752-0.03-1.204,0.371-1.237,1.135c-0.035,0.822,0.357,1.344,1.214,1.344    c0.771,0,1.098-0.523,1.209-1.223C86.195,62.636,85.886,62.105,85.116,62.074z"></path><path d="M86.232,51.564c-0.65,0.058-1.088,0.441-1.132,1.073c-0.056,0.8,0.391,1.338,1.221,1.347    c0.665,0.007,1.09-0.413,1.063-1.096C87.356,52.191,86.982,51.709,86.232,51.564z"></path><path d="M84.351,67.295c-0.676,0.012-1.063,0.432-1.092,1.082c-0.033,0.74,0.365,1.23,1.128,1.194    c0.667-0.032,0.987-0.499,0.986-1.17C85.339,67.747,85.069,67.282,84.351,67.295z"></path><path d="M16.147,71.799c-0.946,0.076-1.222,0.759-1.192,1.577c0.028,0.747,0.487,1.205,1.228,1.109    c0.888-0.116,1.084-0.898,1.297-1.655C17.322,72.122,16.872,71.74,16.147,71.799z"></path><path d="M14.041,47.681c-0.038-0.671-0.299-1.238-1.074-1.311c-0.896-0.084-1.248,0.531-1.303,1.293    c-0.051,0.713,0.296,1.303,1.05,1.355C13.549,49.076,13.948,48.518,14.041,47.681z"></path><path d="M15.652,57.112c0.006-0.712-0.386-1.261-1.134-1.275c-0.841-0.016-1.209,0.561-1.238,1.356    c-0.027,0.754,0.348,1.183,1.092,1.286C15.198,58.387,15.645,57.903,15.652,57.112z"></path><path d="M16.136,63.403c0.047-0.736-0.274-1.252-1.046-1.322c-0.858-0.078-1.326,0.444-1.35,1.229    c-0.022,0.703,0.394,1.185,1.161,1.258C15.653,64.54,16.089,64.158,16.136,63.403z"></path><path d="M14.926,52.814c0.029-0.706-0.388-1.247-1.152-1.22c-0.75,0.027-1.104,0.594-1.142,1.284    c-0.038,0.686,0.399,1.032,1.091,1.136C14.425,53.943,14.897,53.517,14.926,52.814z"></path><path d="M16.755,68.36c-0.035-0.651-0.437-1.026-1.094-1.079c-0.724,0.049-1.01,0.478-1.015,1.137    c-0.005,0.67,0.327,1.129,0.999,1.152C16.413,69.595,16.795,69.095,16.755,68.36z"></path><path d="M48.359,47.211c0.758,0.537,1.082,1.115,0.989,2.019c-0.044,0.426,0.14,0.844,0.666,0.838    c0.524-0.005,0.646-0.42,0.666-0.852c0.031-0.681-0.098-1.353,0.724-1.787c0.778-0.41,0.857-1.2,0.551-1.986    c-0.343-0.88-1.071-1.166-1.943-1.178c-0.818,0.012-1.503,0.255-1.886,1.03C47.784,45.983,47.736,46.77,48.359,47.211z"></path><path d="M13.111,38.328c0.764-0.008,1.177-0.507,1.177-1.223c-0.001-0.729-0.46-1.145-1.264-1.231    c-0.629,0.154-1.119,0.523-1.113,1.272C11.916,37.896,12.358,38.336,13.111,38.328z"></path><path d="M12.741,41.259c0.745,0.008,1.097-0.53,1.217-1.214c-0.088-0.608-0.412-1.003-1.018-0.986    c-0.676,0.019-1.046,0.458-1.077,1.122C11.835,40.778,12.133,41.253,12.741,41.259z"></path><path d="M86.998,38.322c0.761-0.048,1.157-0.524,1.099-1.268c-0.057-0.732-0.53-1.113-1.271-1.171    c-0.708,0.151-1.152,0.572-1.092,1.315C85.792,37.921,86.232,38.371,86.998,38.322z"></path><path d="M87.165,39.061c-0.602-0.076-1.039,0.29-1.076,0.878c-0.046,0.718,0.362,1.245,1.096,1.313    c0.624,0.058,0.916-0.384,0.974-0.982C88.151,39.601,87.825,39.144,87.165,39.061z"></path></g></g></svg>