<?xml version="1.0" encoding="UTF-8" standalone="no"?>
<!DOCTYPE svg PUBLIC "-//W3C//DTD SVG 1.1//EN" "http://www.w3.org/Graphics/SVG/1.1/DTD/svg11.dtd">
<svg width="100%" height="100%" viewBox="0 0 119 100" version="1.1" xmlns="http://www.w3.org/2000/svg" xmlns:xlink="http://www.w3.org/1999/xlink" xml:space="preserve" xmlns:serif="http://www.serif.com/" style="fill-rule:evenodd;clip-rule:evenodd;stroke-linejoin:round;stroke-miterlimit:2;">
    <g transform="matrix(1,0,0,1,-641,-200)">
        <g transform="matrix(1,0,0,1,640,-300)">
            <path d="M92.747,500C109.141,510.601 120,529.042 120,550C120,570.958 109.141,589.399 92.747,600L28.253,600C11.859,589.399 1,570.958 1,550C1,529.042 11.859,510.601 28.253,500L92.747,500ZM60,570C65.519,570 70,574.481 70,580C70,585.519 65.519,590 60,590C54.481,590 50,585.519 50,580C50,574.481 54.481,570 60,570Z" style="fill:rgb(110,124,149);"/>
            <path d="M92.747,500C109.141,510.601 120,529.042 120,550C120,570.958 109.141,589.399 92.747,600L28.253,600C11.859,589.399 1,570.958 1,550C1,529.042 11.859,510.601 28.253,500L92.747,500ZM90.292,508L30.708,508C17.576,517.339 9,532.675 9,550C9,567.325 17.576,582.661 30.708,592L46.592,592C43.736,588.817 42,584.61 42,580C42,570.066 50.066,562 60,562C69.934,562 78,570.066 78,580C78,584.61 76.264,588.817 73.408,592L90.292,592C103.424,582.661 112,567.325 112,550C112,532.675 103.424,517.339 90.292,508ZM60,570C65.519,570 70,574.481 70,580C70,585.519 65.519,590 60,590C54.481,590 50,585.519 50,580C50,574.481 54.481,570 60,570Z" style="fill:rgb(57,67,78);"/>
        </g>
    </g>
</svg>
