<?xml version="1.0" encoding="UTF-8" standalone="no"?>
<!DOCTYPE svg PUBLIC "-//W3C//DTD SVG 1.1//EN" "http://www.w3.org/Graphics/SVG/1.1/DTD/svg11.dtd">
<svg width="100%" height="100%" viewBox="0 0 101 100" version="1.1" xmlns="http://www.w3.org/2000/svg" xmlns:xlink="http://www.w3.org/1999/xlink" xml:space="preserve" xmlns:serif="http://www.serif.com/" style="fill-rule:evenodd;clip-rule:evenodd;stroke-linejoin:round;stroke-miterlimit:2;">
    <g transform="matrix(1,0,0,1,-650.455,5.68434e-14)">
        <g transform="matrix(0.8411,0,0,0.909091,649.613,-272.727)">
            <path d="M120,315C106.202,315 95,330.164 95,355C95,379.836 106.202,395 120,395L120,410L1,410L1,395C14.798,395 26,379.836 26,355C26,330.164 14.798,315 1,315L1,300L120,300L120,315Z" style="fill:rgb(255,181,119);"/>
            <path d="M120,315C106.202,315 95,330.164 95,355C95,379.836 106.202,395 120,395L120,410L1,410L1,395C14.798,395 26,379.836 26,355C26,330.164 14.798,315 1,315L1,300L120,300L120,315ZM108.039,308.8L12.961,308.8C16.602,310.471 19.992,312.948 23.006,316.226C30.306,324.167 35.511,337.473 35.511,355C35.511,372.527 30.306,385.833 23.006,393.774C19.992,397.052 16.602,399.529 12.961,401.2L108.039,401.2C104.398,399.529 101.008,397.052 97.994,393.774C90.694,385.833 85.489,372.527 85.489,355C85.489,337.473 90.694,324.167 97.994,316.226C101.008,312.948 104.398,310.471 108.039,308.8Z" style="fill:rgb(204,128,84);"/>
        </g>
    </g>
</svg>
