<?xml version="1.0" encoding="UTF-8" standalone="no"?>
<!DOCTYPE svg PUBLIC "-//W3C//DTD SVG 1.1//EN" "http://www.w3.org/Graphics/SVG/1.1/DTD/svg11.dtd">
<svg width="100%" height="100%" viewBox="0 0 100 100" version="1.1" xmlns="http://www.w3.org/2000/svg" xmlns:xlink="http://www.w3.org/1999/xlink" xml:space="preserve" xmlns:serif="http://www.serif.com/" style="fill-rule:evenodd;clip-rule:evenodd;stroke-linejoin:round;stroke-miterlimit:2;">
    <g transform="matrix(1,0,0,1,-650.545,-400)">
        <g transform="matrix(0.909091,0,0,0.909091,641.455,-245.455)">
            <path d="M50,710L80,710L120,750L120,780L80,820L50,820L10,780L10,750L50,710Z" style="fill:rgb(204,204,204);"/>
            <path d="M50,710L80,710L120,750L120,780L80,820L50,820L10,780L10,750L50,710ZM53.645,718.8L18.8,753.645L18.8,776.355L53.645,811.2L76.355,811.2L111.2,776.355L111.2,753.645L76.355,718.8L53.645,718.8Z" style="fill:rgb(153,153,153);"/>
        </g>
    </g>
</svg>
