<?xml version="1.0" encoding="UTF-8"?>
<svg width="16px" height="14px" viewBox="0 0 16 14" version="1.1" xmlns="http://www.w3.org/2000/svg" xmlns:xlink="http://www.w3.org/1999/xlink">
    <!-- Generator: Sketch 44.1 (41455) - http://www.bohemiancoding.com/sketch -->
    <title>Page 1 Copy 3</title>
    <desc>Created with Sketch.</desc>
    <defs>
        <polygon id="path-1" points="15.9903562 10.6452925 15.9903562 0.0532712223 1.73981653e-05 0.0532712223 1.73981653e-05 10.6452925 15.9903562 10.6452925"></polygon>
    </defs>
    <g id="Marketplace" stroke="none" stroke-width="1" fill="none" fill-rule="evenodd">
        <g id="Marketplace---Item" transform="translate(-737.000000, -1189.000000)">
            <g id="Page-1-Copy-3" transform="translate(737.000000, 1189.000000)">
                <g id="Group-3" transform="translate(0.000000, 0.001647)">
                    <mask id="mask-2" fill="white">
                        <use xlink:href="#path-1"></use>
                    </mask>
                    <g id="Clip-2"></g>
                    <path d="M15.360926,3.52368471 L3.82267945,2.06241412 L3.5682137,0.812186667 C3.53626849,0.655386667 3.41078904,0.534876863 3.25309041,0.509512157 L0.444378082,0.0581631373 C0.235227397,0.0246180392 0.0384054795,0.167143529 0.0049260274,0.376759216 C-0.0286630137,0.58632 0.113693151,0.783472941 0.32289863,0.817072941 L2.86958356,1.22631216 L4.72437808,10.3377867 C4.76081644,10.5167671 4.91791233,10.6452925 5.1002137,10.6452925 L14.3478849,10.6452925 C14.5597205,10.6452925 14.7314466,10.4732847 14.7314466,10.2609788 C14.7314466,10.0487278 14.5597205,9.8766651 14.3478849,9.8766651 L5.41341918,9.8766651 L5.17692603,8.71504941 L14.410789,8.71504941 C14.7461315,8.71504941 15.0369808,8.48286902 15.1119945,8.15537882 L15.9719397,4.4000298 C16.0671178,3.98431216 15.7832274,3.57715922 15.360926,3.52368471" id="Fill-1" fill="#FFFFFF" mask="url(#mask-2)"></path>
                </g>
                <path d="M6.13092603,11.7596486 C5.5281863,11.7596486 5.03952877,12.2492643 5.03952877,12.8531859 C5.03952877,13.4571624 5.5281863,13.9467231 6.13092603,13.9467231 C6.73372055,13.9467231 7.22232329,13.4571624 7.22232329,12.8531859 C7.22232329,12.2492643 6.73372055,11.7596486 6.13092603,11.7596486" id="Fill-4" fill="#FFFFFF"></path>
                <path d="M13.4704548,11.7596486 C12.8677151,11.7596486 12.3790575,12.2492643 12.3790575,12.8531859 C12.3790575,13.4571624 12.8677151,13.9467231 13.4704548,13.9467231 C14.0732493,13.9467231 14.5618521,13.4571624 14.5618521,12.8531859 C14.5618521,12.2492643 14.0732493,11.7596486 13.4704548,11.7596486" id="Fill-6" fill="#FFFFFF"></path>
            </g>
        </g>
    </g>
</svg>