<svg xmlns="http://www.w3.org/2000/svg" viewBox="0 0 43.90495 44">
  <defs>
    <style>
      .a6d6a009-44e6-4b4a-910d-e9a95c11e195 {
        fill: #000000;
      }
    </style>
  </defs>
  <title>ddb-icon-changelog</title>
  <g id="4867c0e7-d49a-41d4-8b8a-8339663b78a1" data-name="Layer 2">
    <g id="c79e740c-646a-4c18-8e67-4811428b30c1" data-name="Layer 17">
      <path class="a6d6a009-44e6-4b4a-910d-e9a95c11e195" d="M40.78118,8.12377,37.905,11l-6-6,2.87623-2.87623a3.00344,3.00344,0,0,1,4.24753,0l1.75247,1.75246A3.00346,3.00346,0,0,1,40.78118,8.12377Z"/>
      <g>
        <path class="a6d6a009-44e6-4b4a-910d-e9a95c11e195" d="M2.008,22a2.00994,2.00994,0,0,0,1.9892-1.83023A18.01861,18.01861,0,0,1,21.905,4q.735,0,1.44.06l3.5-3.5A21.74887,21.74887,0,0,0,21.905,0,22.003,22.003,0,0,0,.00914,19.84514,1.99163,1.99163,0,0,0,2.008,22Z"/>
        <path class="a6d6a009-44e6-4b4a-910d-e9a95c11e195" d="M43.79917,24.1488Q43.90374,23.08826,43.905,22a21.74172,21.74172,0,0,0-.99-6.53l-3.31,3.31a17.06648,17.06648,0,0,1,.3,3.22c0,.58-.03,1.15-.08,1.72,0,0-.01,0,0,.01-.00293.02954-.01019.05762-.0133.0871l-.00245.01288c-.00457.0451-.01495.08837-.01983.13342-.0589.51861-.13019,1.03308-.23438,1.53662-.01324.08289-.03717.16095-.053.24194-.07776.36859-.16833.73212-.26806,1.092-.01422.0481-.02338.09736-.03894.146-.04871.17389-.10456.34412-.16.51465-.07971.25006-.16644.49683-.25659.74206-.02521.06775-.048.13556-.07342.20331-.08649.23072-.18268.4607-.27881.68256-.09778.22784-.199.45373-.30573.67663A5.10826,5.10826,0,0,1,37.865,30.32c-.03583.08062-.08691.15759-.12988.2373-.06671.124-.13825.24481-.20777.36707a18.03233,18.03233,0,0,1-12.31933,8.78c-.41388.07513-.83319.13446-1.25678.18054-.1687.02087-.33929.03552-.51111.04645-.47644.03808-.95526.06854-1.44189.0686L21.99583,40a17.96094,17.96094,0,0,1-11.53955-4.19.94038.94038,0,0,1,.31-.17l4.38-1.19a.90344.90344,0,0,0,0-1.74l-9.17-2.52-3.73-1.02a.90035.90035,0,0,0-1.15,1.1l3.61,12.91a.90345.90345,0,0,0,1.74005-.01l1.2-4.4a.687.687,0,0,1,.03-.08A21.88013,21.88013,0,0,0,14.905,42.8092V42.86c.39.13.78.25,1.18.35a4.03574,4.03574,0,0,0,.47.12.261.261,0,0,0,.08.03c.1.02.2.05.31.07a.195.195,0,0,0,.08.01.108.108,0,0,0,.08.02c.09.02.19.04.28.06.19.04.39.08.59.12a.10915.10915,0,0,1,.05.01c.25.05.51.09.77.12a1.10085,1.10085,0,0,0,.18.02c.18.03.37.05.55.07a1.49085,1.49085,0,0,0,.21.02c.01.01.01.01.01995,0l.02881.00226c.17194.01722.34546.02729.5185.04053.20031.016.39831.03674.60272.04718.2.01.4.02.61.02.16.01.32.01.48005.01h.00134l.002-.00012c.35889-.00012.70776-.00995,1.0567-.02991.27136-.01465.53937-.03723.8067-.05865a21.72146,21.72146,0,0,0,13.55207-6.3042c.01648-.01636.03479-.0307.05121-.04712s.03033-.03485.04669-.05133q.64737-.65406,1.238-1.36005c.04328-.05109.09247-.09717.13532-.14862a3.945,3.945,0,0,0,.309-.38629c.19934-.25415.38861-.51538.5769-.77838.02546-.03894.06006-.07453.08411-.11536.15-.2.29-.4.42-.61.02234-.0326.043-.06812.06525-.10126.27136-.41815.52148-.85.76477-1.28729.08423-.15479.17944-.304.26-.46143l.002-.004c.11762-.22418.22962-.45087.33979-.67956.04486-.09339.095-.1814.13818-.27643a4.99,4.99,0,0,0,.21-.48c.03485-.08045.0672-.165.10187-.24665A22.04128,22.04128,0,0,0,43.79917,24.15Z"/>
      </g>
      <polygon class="a6d6a009-44e6-4b4a-910d-e9a95c11e195" points="14.824 28.081 15.905 21 29.905 7 35.905 13 21.905 27 14.824 28.081"/>
    </g>
  </g>
</svg>
