<svg id="Layer_1" data-name="Layer 1" xmlns="http://www.w3.org/2000/svg" viewBox="0 0 39.75 37.64"><defs><style>.cls-1{fill:#000000;}</style></defs><title>Artboard 10</title><path class="cls-1" d="M7.52,15.22a2.22,2.22,0,1,0,0,4.45,2.2,2.2,0,0,0,.31,0l1.85,1.66V16.94A2.22,2.22,0,0,0,7.52,15.22Z"/><path class="cls-1" d="M30.29,11l6-6,.95-5L32.4.86,27.74,5.52A7.08,7.08,0,0,1,30.29,11Z"/><path class="cls-1" d="M31.92,19.64a2.2,2.2,0,0,0,.31,0,2.22,2.22,0,1,0-1.95-3.28V21.1Z"/><path class="cls-1" d="M12.17,5.67,7.35.86,2.5,0l.95,5,6.23,6.17V11A7,7,0,0,1,12.17,5.67Z"/><path class="cls-1" d="M20,4.35c-.56,0-9.14.27-9.14,7.62V28.55s.68,3.74,5.81,6.31V19.76l-3.88-.9.45-3,5.86,1.26-1,9L20,28.17h0l1.88-2.06-1-9,5.86-1.26.45,3-3.88.9v15.1c5.14-2.57,5.81-6.31,5.81-6.31V12c0-7.34-8.44-7.62-9.14-7.62"/><path class="cls-1" d="M9.86,30.31a4.84,4.84,0,0,1-.18-.63v-5.1L5.25,30.23l2.2,2Z"/><path class="cls-1" d="M3,30.58.21,33.63a.78.78,0,0,0,0,1.1l2.93,2.7a.78.78,0,0,0,1.1,0L7.1,34.34a.78.78,0,0,0,0-1.1l-.43-.39,0,0L4,30.47A.77.77,0,0,0,3,30.58Z"/><path class="cls-1" d="M30.29,24.86v4.83a5.1,5.1,0,0,1-.23.76l2.21,1.73,2.21-2Z"/><path class="cls-1" d="M39.54,33.63l-2.82-3.05a.78.78,0,0,0-1.1,0l-.51.47,0,0-2,1.82.05,0-.43.39a.78.78,0,0,0,0,1.1l2.82,3.05a.78.78,0,0,0,1.1,0l2.93-2.7A.78.78,0,0,0,39.54,33.63Z"/></svg>