<?xml version="1.0" encoding="utf-8"?>
<!-- Generator: Adobe Illustrator 20.0.0, SVG Export Plug-In . SVG Version: 6.00 Build 0)  -->
<svg version="1.1" id="Layer_1" xmlns="http://www.w3.org/2000/svg" xmlns:xlink="http://www.w3.org/1999/xlink" x="0px" y="0px"
	 viewBox="0 0 19.9 16" style="enable-background:new 0 0 19.9 16;" xml:space="preserve">
<style type="text/css">
	.st0{fill:#FFFFFF;}
</style>
<g>
	<path class="st0" d="M-375.1,7.2c0,0,1.5,1.4,4.2,0.9c0,0-0.5-2.7-4.2-2.6c0,0,1.4-2.4-1.2-4.9c-2.7-2.5-7.6-2.9-7.6-2.9
		s6.7,3.5,5.9,5.9c0,0-3.2,1.2-3.5,3c-0.3,1.8-0.7,2.7-3.3,4.3c0,0-1.1,1-0.9,1.5c0.1,0.5,2.7,3.5,3.9,3.4s4-0.9,6.1-0.5
		c2.1,0.5,3.8-3.3,2.4-5.4S-375.1,7.2-375.1,7.2z M-380.3,9.3c1.3-2.4,3.6-2.7,3.6-2.7C-377.3,10.2-380.3,9.3-380.3,9.3z"/>
	<path class="st0" d="M-373.9,2.6c0.3,0.8,0.3,1.5,0.1,2.1c2.6,0.4,3.6,2.2,3.8,3.2l0.2,0.8l-0.8,0.2C-371,9-371.5,9-371.9,9h0
		c-0.3,0-0.7,0-1-0.1c0.1,0.2,0.3,0.4,0.4,0.6c0.9,1.3,0.9,3.1,0.1,4.7c-0.1,0.3-0.3,0.5-0.5,0.8c2.3,0.9,1.5,2.4,3.6,2.4
		c2.1,0,3.6-12.7,0-14.4C-370.2,2.5-372.6,2.5-373.9,2.6z"/>
	<path class="st0" d="M-381.4,4.2l1.8-1.5c-1.8-0.2-5.9-4.2-5.8-4C-384.9,1.7-381.4,4.2-381.4,4.2z"/>
</g>
<g>
	<path class="st0" d="M-238.7,14c0-0.4,0-0.7,0-1c0.3,0.1,0.5,0.3,0.9,0.4c-0.7-2-0.3-3.6,1.2-5c-0.6-0.4-1.1-0.8-1.6-1.2
		c-0.1,0.7-0.2,1.2-0.2,1.7c-0.1,0-0.2,0-0.3,0c-0.1-0.6-0.3-1.2-0.4-1.7c-0.5-0.1-1-0.2-1.5-0.3c0.1,0.2,0.3,0.5,0.3,0.7
		c-0.1,0.6,0.2,0.8,0.5,1.1c0.9,0.7,1.3,1.7,1.1,2.9c-0.1,0.8-1.6,1.3-1.3,2.3c0,0,0,0.1,0.1,0.1C-239.9,14-238.9,14.1-238.7,14z"/>
	<path class="st0" d="M-240.8,6.9C-240.8,6.9-240.8,6.9-240.8,6.9C-240.8,6.9-240.8,6.9-240.8,6.9L-240.8,6.9z"/>
	<path class="st0" d="M-230.7,0.2c-0.5-0.2-1.3-0.8-1.8-0.8c-0.9,0-2.6,1.5-3.3,2.1c1.4-0.2,3.9-0.9,5-1.1
		C-230.8,0.4-230.7,0.3-230.7,0.2z"/>
	<path class="st0" d="M-223.2,8.6c-0.6-1.7-0.9-3.5-2.5-4.3c-1.1,1.3-1.2,1.4-2.2,1.2c0.2-0.1,0.4-0.1,0.5-0.2
		c0.6-0.3,1.2-0.7,1.3-1.6c0.1-0.8,0-1.6-0.6-2.2c-0.5-0.5-0.9-0.5-1.5-0.2c-0.4,0.3-0.8,0.5-1.1,0.8c0,0.1-0.1,0.1-0.2,0.1
		c-0.1,0.1-0.2,0.1-0.3,0.2c0-0.1-0.1-0.1-0.1-0.2c0,0,0.1-0.1,0.1-0.1c-0.1-0.1-0.2-0.3-0.3-0.4c-0.1,0-0.3,0-0.4,0
		c-1.1-0.2-2.1,0-3.2,0.3c-1.3,0.3-2.5,0.7-3.8,0.8c-0.2,0-0.3,0.1-0.5,0.1c0,0,0,0,0,0.1c0.1,0.3,0,0.7-0.2,1c0.1,0,0.2,0,0.3-0.1
		l0,0.2c-1.4,0.5-2.8,0.9-4.3,1.4c0.2,0.7,0.4,1.3,0.6,1.8c0.2-0.2,0.4-0.3,0.5-0.4c-0.1-0.4,0.1-0.3,0.3-0.3
		c0.7,0.1,1.4,0.3,2.1,0.4c1.4,0.2,2.1,1.2,2.5,2.7c0.3,1.2-0.2,2.2-0.9,3c0,0-0.1,0.1-0.1,0.2c-0.3,1.7-1.2,2.2-2.7,2
		c0.7,0.6,1.4,0.8,2.1,0.5c0.6-0.2,1.2-0.5,1.9-0.6c1.2-0.3,2.4-0.7,3.6-0.2c0.8,0.4,1.5,1.2,2.3,1.7c0.9,0.6,1.7,1.2,2.6,1.7
		c0.2-0.5,0.3-1,0.5-1.5c0.2-0.7,0.6-1.4,0.7-2.1c0-0.2,0.2-0.3,0.3-0.2c0.2-0.3,0.3-0.7,0.5-1.1c0.1,0.5,0.2,0.8,0.3,1.3
		c0.2-0.4,0.3-0.7,0.4-1c0.3-1.2,0.6-2.4,0.7-3.6c0.1-0.7-0.2-1.5-0.4-2.1C-223.9,7.9-223.6,8.2-223.2,8.6z M-236.4,6.6
		c0.4-0.6,0.8-2.1,1.2-2.1c1.3-0.1,1.5,1.4,2,2.1C-234.1,6.6-235.4,6.5-236.4,6.6z M-229.8,5.5c0.4-0.8,1.1-2.7,1.5-3.5
		c0,0,0.5,0.3,0.7,0.4c0.1,0,0.1,0.1,0.1,0.1c-0.1,0.4-0.2,0.8-0.3,1.2c0.1,0,0.3,0.2,0.5,0.3c0.2,0.1,0.3,0.2,0.4,0.2
		C-227.4,4.5-229.3,5.3-229.8,5.5z"/>
	<path class="st0" d="M-241.7,4c0.1,0,0.1,0,0.2,0c0,0,0,0,0,0c0.1,0,0.1,0,0.2,0c0,0,0,0,0,0c0,0,0,0,0.1,0c0,0,0,0,0,0
		c0,0,0,0,0,0c0,0,0,0,0,0c0,0,0,0,0,0c0,0,0,0,0,0c0,0,0,0,0-0.1c0,0,0,0,0,0c0,0,0,0,0-0.1c0,0,0,0,0-0.1c0,0,0-0.1,0-0.1
		c0,0,0,0,0-0.1c0,0,0-0.1,0-0.1c0,0,0,0,0-0.1c0-0.1,0-0.2,0-0.3c0.3,0.2,0.4,0.4,0.5,0.4c0.1,0,0.3,0,0.4,0c0.1,0,0.2,0,0.4,0
		c0,0,0,0,0,0c0,0,0,0,0,0c0.1,0,0.1,0,0.2,0c0,0,0,0,0,0c0.1,0,0.1,0,0.1-0.1c0.1-0.2,0.1-0.3,0.1-0.5c-0.1-0.3-0.4-0.5-0.7-0.7
		c-0.1-0.1-0.3-0.1-0.4-0.2c0,0-0.1,0-0.1,0c-0.1,0-0.2,0-0.2,0c-0.1,0-0.2,0-0.3,0c0,0,0,0,0,0c-0.1,0-0.2,0.1-0.2,0.1
		c0,0,0,0-0.1,0.1c-0.1,0-0.1,0.1-0.2,0.2c0,0,0,0,0,0c-0.1,0.1-0.2,0.2-0.2,0.3c0,0,0,0.1-0.1,0.1c-0.1,0.1-0.1,0.2-0.2,0.3
		c0,0,0,0.1-0.1,0.1c-0.1,0.2-0.1,0.3-0.2,0.5c0.1,0,0.1,0,0.2,0c0,0,0,0,0,0C-241.8,3.9-241.8,3.9-241.7,4z"/>
</g>
<g>
	<path class="st0" d="M-156.9,2L-156.9,2c0.1-0.2,0.2-0.3,0.3-0.5c0,0,0,0,0,0c0.1-0.1,0.2-0.3,0.4-0.4c0,0,0,0,0,0
		c0.3-0.2,0.6-0.4,1.1-0.5c-2.2-1.1-3.5-1.5-2.9-0.6C-157.7,0.4-157.2,1.2-156.9,2z"/>
	<path class="st0" d="M-145.5,3.2L-145.5,3.2C-145.5,3.3-145.5,3.2-145.5,3.2z"/>
	<path class="st0" d="M-141.3,8.5c-0.5-1.2-1.6-1.5-2.5-2.5c-0.6-0.7-1.2-1.3-1.8-2c-0.2-0.2-0.3-0.5-0.5-0.7c0.1,0,0.2,0,0.3,0
		c0,0,0.1,0,0.1,0c0,0,0-0.1,0-0.1c-0.2-0.2-0.4-0.4-0.5-0.6c-0.9-0.9-1.9-1.5-3-2c-0.6-0.3-1.2-0.5-1.8-0.6
		c-2.9-1.6-4.8-2.3-4.1-1.2c0.4,0.7,1,1.6,1.2,2.5c0,0-0.1,0-0.1,0c-0.1,0.1-0.2,0.1-0.3,0.2c0.1,0.1,0,0.3-0.1,0.4
		c-0.2,0.2-0.3,0.4-0.5,0.5c-0.4,0.3-0.9,0.7-1.1,1.2c0,0,0.1,0,0.1,0c-0.4,0.5-0.6,1.1-0.5,1.8c0.1,0.7-0.1,1.3-0.4,1.8
		c-0.3,0.5-0.7,0.9-1.2,1.3c-0.5,0.4-1,0.8-1.5,1.2c-0.2,0.1-0.2,0.2,0,0.3c0.1,0.1,0.1,0.1,0.2,0.2l-0.1,0.2l-0.3,1l0.9,0.3
		c0.1,0,0.1,0.1,0.2,0.1l0.1,0l0.2,0c0,0,0.1,0,0.1,0c0.1,0.1,0.3,0.1,0.4,0.1h0l0.1,0c0.1,0,0.2,0,0.3,0c0.3,0,0.6,0,0.9-0.1
		c0.8-0.2,1.5-0.4,2.3-0.7c0.5-0.2,1-0.3,1.5-0.4c0.1,0.3,0.3,0.5,0.5,0.7c0.1,0.1,0.2,0.2,0.2,0.3l-0.1,0.3l0.1,0.3
		c0.4,0.8,0.3,1.1,0.3,1.2l0,0.1l0,0.1c0,0.4-0.4,1.2-0.6,1.6l-1,1.8l2-0.3c0.7-0.1,1.4-0.7,2.4-1.8c-0.4,0.8-0.9,1.7-1.3,2
		c0.8,0,1.5,0.1,2.3,0.1c0.4,0,0.7,0,1.1,0c0.1,0,0.1,0,0.2,0c0.3-0.1,0.7-0.2,1-0.3c0.5-0.5,1.3-2.5,1.6-3c0.2-0.4,0.8,0,0.6,0.4
		c-0.2,0.4-0.5,1.9-0.7,2.2c0.6-0.2,1.3-0.5,1.9-0.9c0.3-0.6,0.7-1.1,0.9-1.7c0-0.4,0-0.4,0.1-1.1c0,0,0-0.1,0-0.1
		c-0.2-0.6-1.7-2.2-1.8-2.8c0-0.2-0.1-0.4-0.1-0.6c0,0,1.4,0.9,1.4,0.9c0.1,0.2,1,0.6,1.1,0.8c0,0.1,0.1,0.1,0.1,0.1
		c0-0.1,0.1-0.1,0.1-0.2C-140.1,10.2-141,9.3-141.3,8.5z M-155.1,5.3l1-1h1v1l-1,0.5h-0.6L-155.1,5.3z"/>
</g>
<g>
	<path class="st0" d="M-74.5,5.5c0.4,0.2,0.7,0.4,1,0.7C-72.3,6-70.7,6-69.9,3c0.4-1.6,1.3-2.5,2.3-3.1c-0.3,0-0.5-0.1-0.8-0.1
		c0.6-0.3,0.7-0.6,0.7-0.6c-0.3,0.1-0.5,0.1-0.5,0.1c0.8-0.3,0.9-0.7,0.9-0.7c-0.4,0.1-0.4,0-0.4,0c0.5-0.2,0.7-0.5,0.7-0.5
		c-0.2,0-0.5,0.2-0.5,0.2c0.3-0.3,1.2-0.7,1.2-0.7c-3-0.2-5.2,1.6-6.1,2.7c-1.9,1-2.7,2.9-2.5,4.9L-74.5,5.5z"/>
	<path class="st0" d="M-68.8,3.9c-0.1,0.4-0.2,0.7-0.3,1c0,0,0.1,0,0.1,0c0.6,0,1.7,0.5,1.7,1.1s-0.8,1.7-1.4,1.7
		c-0.5,0-1.3-0.6-1.4-1.1c-0.6,0.6-1.3,0.5-1.8,0.5c0.5,0.7,0.1,1.5,0.1,1.6l0.3,0.3l-0.6,0.1l0.1,0.2l0,0c0,0,2.7,1.6,4.7,1.4
		c1.9-0.2,2.5-2.2,2.6-2.3l0.1-0.5l0.2,0.4c0.1,0.2,0.3,0.4,0.4,0.6c-0.2-0.7-0.6-1.4-0.6-1.4l0.3-0.2c-0.1-0.3-0.2-0.5-0.2-0.5
		l0.3-0.2C-64.3,6.2-64.5,6-64.5,6l-1.2-1.1l0.8,0.4l0.2-0.3c0,0,0,0,0.1,0c0.1,0,0.2,0.1,0.3,0.1c-0.4-0.3-0.6-0.5-0.6-0.5
		l-0.8-0.7l0.9,0.3c-1-0.6-2.5-1.2-3.2-1.4l0.1-0.2C-68.4,2.9-68.6,3.4-68.8,3.9z"/>
	<path class="st0" d="M-74,9.1c0,0,0-0.9-0.4-1.7c-0.1-0.2-0.3-0.5-0.5-0.7c-0.2-0.2-0.4-0.4-0.7-0.5c0,0-1.7,2.3-0.3,4.6
		c0.1,0.1,0.2,0.3,0.3,0.4c0,0,0-0.3,0.2-0.7C-75.2,9.9-74.8,9.2-74,9.1z"/>
	<path class="st0" d="M-58.4,12c0,0,0.2,0.1,0.5,0.5c0,0-0.3-2.5-1.8-3.6c0,0,0.8,0,1.2,0.5c0,0-0.2-1.4-1.1-1.9c0,0,0.7,0,0.9,0.2
		c0,0-0.4-1.6-1.7-2.1c0,0,0.6,0,0.7,0.2c0,0-0.2-1.4-2.2-2.2c0,0,0.6,0,0.9,0.2l-0.6-0.4c0,0-0.6-0.7-1.6-1.5
		c0.5-0.2,1.1-0.3,1.1-0.3c-0.2,0-0.3-0.2-0.3-0.2c0.4,0.1,0.9-0.1,0.9-0.1c-0.1,0-0.3-0.1-0.3-0.1c1.1,0,1.4-0.4,1.4-0.4
		c-0.4,0-0.7-0.2-0.7-0.2c1.1,0,1.5-0.4,1.5-0.4c-0.6,0-0.6-0.2-0.6-0.2c0.8,0.1,1.2-0.2,1.2-0.2c-0.3-0.1-0.7,0-0.7,0
		c0.5-0.3,1.9-0.3,1.9-0.3c-5.3-2.7-9.7,0.8-9.7,0.8s0,0,0,0c-0.4,0.2-0.7,0.5-1,0.9c0.7,0.3,4.6,1.8,5.4,2.7l0.5,0.6l-1.1-0.3
		c0.2,0.1,0.3,0.3,0.5,0.5l0.5,0.5l-0.8-0.1c0.1,0.1,0.1,0.1,0.2,0.2l0.3,0.4l-0.5,0c0,0,0,0,0,0c0.2,0.3,0.5,0.7,0.7,1.3l0.3,0.6
		l-0.6-0.3c0,0-0.1,0-0.2-0.1c0,0.2,0.1,0.4,0.1,0.6l0,0.5l-0.2-0.1c0.2,0.6,0.5,1.3,0.6,1.8l0.1,0.7l-0.5-0.4c0,0-0.6-0.5-1-1
		c-0.4,0.8-1.4,2.4-3.5,2.6c-0.2,0-0.4,0-0.6,0c-2.1,0-4.4-1.1-5.3-1.6c-0.3-0.1-0.7-0.2-1-0.2c-0.2,0.4-0.3,1-0.3,1L-75,13l0,0
		c0.2,1.2,1.3,3,1.3,3c0.3,0.7,1.3,1.3,1.3,1.3c-0.4-0.5-0.4-1.4-0.4-1.4c1.5,1.6,3.2,1.6,3.2,1.6c-0.5-0.8-0.1-1.7-0.1-1.7
		c0.5,1.2,1.9,1.6,1.9,1.6c0.7-1,0.4-1.7,0.4-1.7c1.1,1.7,4.1,1.8,4.1,1.8c-0.6-1-0.3-2-0.3-2c0.5,1.4,2.6,1.8,2.6,1.8
		c-0.4-0.6-0.3-1.4-0.3-1.4c0.5,0.8,1.6,0.8,1.6,0.8c-0.6-0.6-0.8-2.2-0.8-2.2c1.5,1.3,1.4,3.1,1.4,3.1c0.9-0.4,1.1-1,1.2-1.3l0,0
		c0,0,0,0,0,0c0-0.2,0-0.3,0-0.3l0,0C-57.7,14.9-57.8,13.6-58.4,12z"/>
</g>
<path class="st0" d="M19.9,14.5c0,0-1-1.5-1.1-4.4c0,0,0.3,0.9,0.7,1.9c0,0,0.2-1-0.6-3.6c0.1,0.2,0.7,1.8,0.8,2.4
	c0,0-0.1-6.4-2.7-8c0.1,0,0.8,0.1,2.5,2.4c0,0-1.4-3.3-4.2-4.2l2.4,0.7c0,0-1.6-1.4-5.8-1.4c0,0,1.5-0.2,2.1,0
	c-0.8-0.2-5.5-1.1-8.9,2c0,0-1.2,0-1.6,0.4c0,0-2.2-0.2-3.1,1.4c-1.2,2.1,0.3,4,1.1,4.7c0,0-0.2-1.6,0.2-2.2c0,0,1.1,0.7,3.3,0.6
	c6-0.4,4.3,2.2,2.4,4c0,0-1,0.9-3,3c0,0,3-0.9,3.4-1.5c0,0,0.8,1.1,1,1.9c0,0,0.7-0.8,0.9-1.6c0,0,0.1,0.9,0.2,1.1
	c0,0,0.4-0.2,0.5-0.6c0,0,0.2,0.7,0.4,0.8c0,0,0.3-0.5,0.3-0.8c0,0,0.2,1.1,1,1.8c0,0,0.3-0.5,0.3-1c0,0,0.1,0.3,0.4,0.5
	c0,0,0.4-1,0.5-2.3c0,0,0.2,2.3,1.1,3.1c0,0,0.4-0.7,0.3-1.4c0,0,1.3,1.1,2.3,1.7c0,0-0.4-0.7-0.4-1.3c0,0,0,0.1,2.4,1
	c0,0,0.3-1.2,0-2.3C19.1,13.6,19.4,14.2,19.9,14.5z M8.9,3.9C8.3,4,7.8,3.7,7.7,3.1c0-0.2,0-0.3,0.1-0.4c0,0,0,0,0,0
	C8.4,2.2,9,1.9,10.6,2.4C10.5,3.1,9.5,3.9,8.9,3.9z"/>
<g>
	<path class="st0" d="M-303.9,2.1c0,0-0.6-1.7-2.4-2.2l0.6,2.8L-303.9,2.1z"/>
	<path class="st0" d="M-299.5,14.1c0.2,0,0.3,0,0.5,0c0.1,0,0.2,0,0.2,0c0.2,0,0.4-0.1,0.6-0.1c0.1,0,0.2,0,0.2-0.1
		c0.3-0.1,0.5-0.2,0.8-0.3c-0.5-0.2-1.2-0.7-1.9-1.5c0.1,0,0.2,0,0.3,0c0,0,0.1,0,0.1,0c0.1,0,0.1,0,0.2,0h0.1c0.1,0,0.1,0,0.2,0
		h0.1c0,0,0.1,0,0.1,0h0c0,0,0,0,0,0c0.1,0,0.1,0,0.2,0h0c0,0,0.1,0,0.1,0c-0.5-0.2-0.9-0.7-1.2-1.2c0.2,0,0.4,0,0.7,0c0,0,0,0,0,0
		h0.1c0.1,0,0.2,0,0.3,0h0.1c0.1,0,0.2,0,0.2,0c0,0,0.1,0,0.1,0c0.1,0,0.2,0,0.3,0c0,0,0,0,0,0c0.1,0,0.1,0,0.2,0c0,0,0,0,0.1,0
		c0,0,0.1,0,0.1,0h0c0,0,0,0,0,0c-0.2-0.4-0.5-0.6-0.8-0.9c0.2,0,0.4-0.1,0.6-0.1c0.1,0,0.1,0,0.2,0c0.2,0,0.3,0,0.5,0
		c0.1,0,0.3,0,0.5,0c0.1,0,0.2,0,0.2,0c0.2,0,0.5,0.1,0.8,0.1c0-0.1-0.1-0.3-0.1-0.5c0-0.1-0.1-0.2-0.1-0.3c0-0.1,0-0.2-0.1-0.3
		c0-0.2-0.1-0.3-0.1-0.5c0,0,0-0.1,0-0.1c-0.2-0.9-0.6-1.9-1-2.9c0,0,0,0,0,0c-0.1-0.3-0.2-0.5-0.4-0.8c-0.3-0.6-0.6-1.1-0.9-1.6
		c-0.2,0-0.4,0-0.7,0c0,0-1.3-2.8-4.7-4.1v3.9c0,0-4.8,1.8-4.9,3.2c-0.1,1.4-0.2,3.3-0.5,3.6c-0.3,0.3-1.6,2-1.2,2.3
		c0.2,0.2,1.4,1.6,2.5,2.2c0,0.2,0.2,1.3-0.7,2.5l0.4,0.4c0.8-1,0.9-2,0.9-2.5c0.2,0.1,0.3,0.1,0.5,0.1c0.3,0,0.7,0,1.1,0
		c-0.1,0.8-0.3,1.9-0.8,2.8l0.6,0.3c0.6-1.1,0.8-2.2,0.9-3.1c0.3,0,0.7,0,1,0c0.2,0.6,0.4,1.4,0.2,2.3l0.5,0.1
		c0.2-0.9,0.1-1.8-0.1-2.4c0.5,0,0.9,0,1.1,0.1c0.1,0,0.1,0.1,0.2,0.1l0.1-0.6c0,0,0.3,0,0.7,0h0c0,0,0,0,0,0c0.2,0,0.4,0,0.6,0
		C-299.6,14.1-299.6,14.1-299.5,14.1z M-304.4,8.4c-0.5,0.5-1.2,0.8-1.6,0.8c-0.1,0-0.3,0-0.3-0.1c-0.2-0.2,0-1.1,0.9-1.9
		c0.5-0.5,1.2-0.8,1.6-0.8c0.1,0,0.3,0,0.3,0.1c0.1,0.1,0.1,0.4,0,0.6C-303.7,7.6-304,8.1-304.4,8.4z"/>
	<path class="st0" d="M-291.1,10.2c0-0.1,0-0.1,0-0.2c-0.1-0.9-0.4-1.7-1-2.4c0.7,0.3,1.1,0.7,1.1,0.7c-0.7-2.1-2.4-2.1-2.5-2.1
		c-0.7-0.5-1.4-0.9-2-1.3c0.9,1.9,1.3,4,1.5,5l0.2,0.7l-0.7-0.1c-0.4-0.1-0.9-0.1-1.3-0.1c-0.1,0-0.3,0-0.4,0
		c0.1,0.1,0.1,0.2,0.2,0.3l0.3,0.6l-0.6,0.1c0,0-0.6,0.1-1.2,0.1c0.1,0.1,0.2,0.1,0.3,0.2l2.2,0.8l-2.4,0.1c0,0,0,0-0.1,0
		c0.3,0.2,0.5,0.3,0.7,0.4l1.1,0.5l-1.1,0.4c-1.2,0.5-2.4,0.6-3.2,0.6c1,1.5,4.2,2.8,4.2,2.8c-0.2-1.3,1.3-2.4,1.3-2.4
		c0.5,0.1,0.5,2.4,0.5,2.4c0.9-1,1.9-2.3,2.4-4.1c0.5,0.5,0.8,1.2,0.8,1.2C-290.4,13.6-290.8,11.7-291.1,10.2z"/>
</g>
</svg>
