<svg id="Layer_1" data-name="Layer 1" xmlns="http://www.w3.org/2000/svg" viewBox="0 0 43.29 41.42"><defs><style>.cls-1{fill:#000000;}.cls-2{fill:#262324;}</style></defs><title>Artboard 14</title><path class="cls-1" d="M22.57,16.2c-1.2,0-2.69-.28-3-1.6-.47-1.91,2.32-3,2.44-3.1l6.79-2L26.51,6.09h0l-.05.07a1.71,1.71,0,0,1-2.78-.53,1.71,1.71,0,0,1-2.53-1.47l0,0L9.92,6.68a1.69,1.69,0,0,1,.21.81A1.71,1.71,0,0,1,8.9,9.13a1.7,1.7,0,0,1-1.33,2.31l7.85,15,.06,0A1.71,1.71,0,0,1,18,27.62a1.69,1.69,0,0,1,2.1,1.92l14.46-4.2a1.68,1.68,0,0,1,.94-2.07,1.7,1.7,0,0,1,.71-2.35l-4.37-6.66c-1.63.43-4.07,1-7.72,1.8A8.82,8.82,0,0,1,22.57,16.2Z"/><polygon class="cls-1" points="1.4 5.48 1.39 5.53 2.95 8.45 1.4 5.48"/><polygon class="cls-1" points="43.29 33.49 43.03 32.58 16.16 40.43 16.16 35.26 1.02 6.95 0 10.86 16.16 41.42 16.16 41.42 16.16 41.42 43.29 33.49"/><polygon class="cls-2" points="2.95 8.45 2.95 8.45 8.78 19.6 2.95 8.45"/><path class="cls-1" d="M42.68,26,34.46,13.47c-.34.14-.84.3-1.58.51L40,24.81l-23,6.69L4.1,7,25.16,2.21l4.62,7.05L31.4,8.8,25.63,0,1.4,5.48,3,8.45,16.43,33.64Z"/><polygon class="cls-1" points="16.16 33.72 16.43 33.64 2.95 8.45 8.78 19.6 16.16 33.72"/><polygon class="cls-1" points="16.16 33.72 16.16 33.72 8.78 19.6 16.16 33.72"/><path class="cls-1" d="M33.66,10.2a1.38,1.38,0,0,0-1.38-.51l-.13,0-1.61.46-1,.29-7,2c-.5.2-2,1-1.79,1.91.27,1.08,2.62.87,3.42.71,2.27-.49,5.16-1.16,7.33-1.71l1-.27c.68-.18,1.23-.34,1.61-.47l.39-.15A3.52,3.52,0,0,0,33.66,10.2ZM23.31,14.49a.79.79,0,1,1,.79-.79A.79.79,0,0,1,23.31,14.49Z"/><polygon class="cls-1" points="42.55 28.34 42.55 26.92 16.97 34.4 16.97 35.48 23.55 34.24 16.97 36.06 16.97 37.03 29.97 33.98 16.97 37.95 16.97 38.71 42.55 31.25 42.55 28.83 29.18 32.02 42.55 28.34"/></svg>