<svg xmlns="http://www.w3.org/2000/svg" viewBox="0 0 20 20">
  <title>dash-light</title>
  <g id="b8f1c24b-e480-48af-b870-04cfdd29d04b" data-name="dash-light">
    <path d="M19,8.5a.49514.49514,0,0,1-.5.5h-5a.5.5,0,0,0,0,1H17a.5.5,0,0,1,0,1H15.81c-.54,1.33-2.18,2-3.81,2-4,6,1,6-8,6H1c-1-2,0-5,3-4A66.58832,66.58832,0,0,0,7,8C7,7,3,0,3,0h7.79s.12.39.31,1H17a.5.5,0,0,1,0,1H10.29a.5.5,0,1,0,0,1h3a.5.5,0,0,1,0,1H12.15c.28.74.56995,1.44.85,2a18.40029,18.40029,0,0,0,1.7,2h3.8A.49511.49511,0,0,1,19,8.5Z" fill="#000000"/>
  </g>
</svg>
