<?xml version="1.0" encoding="utf-8"?>
<!-- Generator: Adobe Illustrator 20.0.0, SVG Export Plug-In . SVG Version: 6.00 Build 0)  -->
<svg version="1.1" id="Layer_1" xmlns="http://www.w3.org/2000/svg" xmlns:xlink="http://www.w3.org/1999/xlink" x="0px" y="0px"
	 viewBox="0 0 18.8 18.8" style="enable-background:new 0 0 18.8 18.8;" xml:space="preserve">
<style type="text/css">
	.st0{fill:#FFFFFF;}
</style>
<g>
	<path class="st0" d="M5.5,3.3c0,0-0.6-1.7-2.4-2.2l0.6,2.8L5.5,3.3z"/>
	<path class="st0" d="M9.9,15.3c0.2,0,0.3,0,0.5,0c0.1,0,0.2,0,0.2,0c0.2,0,0.4-0.1,0.6-0.1c0.1,0,0.2,0,0.2-0.1
		c0.3-0.1,0.5-0.2,0.8-0.3c-0.5-0.2-1.2-0.7-1.9-1.5c0.1,0,0.2,0,0.3,0c0,0,0.1,0,0.1,0c0.1,0,0.1,0,0.2,0h0.1c0.1,0,0.1,0,0.2,0
		h0.1c0,0,0.1,0,0.1,0h0c0,0,0,0,0,0c0.1,0,0.1,0,0.2,0h0c0,0,0.1,0,0.1,0c-0.5-0.2-0.9-0.7-1.2-1.2c0.2,0,0.4,0,0.7,0c0,0,0,0,0,0
		h0.1c0.1,0,0.2,0,0.3,0h0.1c0.1,0,0.2,0,0.2,0c0,0,0.1,0,0.1,0c0.1,0,0.2,0,0.3,0c0,0,0,0,0,0c0.1,0,0.1,0,0.2,0c0,0,0,0,0.1,0
		c0,0,0.1,0,0.1,0h0c0,0,0,0,0,0c-0.2-0.4-0.5-0.6-0.8-0.9c0.2,0,0.4-0.1,0.6-0.1c0.1,0,0.1,0,0.2,0c0.2,0,0.3,0,0.5,0
		c0.1,0,0.3,0,0.5,0c0.1,0,0.2,0,0.2,0c0.2,0,0.5,0.1,0.8,0.1c0-0.1-0.1-0.3-0.1-0.5c0-0.1-0.1-0.2-0.1-0.3c0-0.1,0-0.2-0.1-0.3
		c0-0.2-0.1-0.3-0.1-0.5c0,0,0-0.1,0-0.1c-0.2-0.9-0.6-1.9-1-2.9c0,0,0,0,0,0c-0.1-0.3-0.2-0.5-0.4-0.8c-0.3-0.6-0.6-1.1-0.9-1.6
		c-0.2,0-0.4,0-0.7,0c0,0-1.3-2.8-4.7-4.1v3.9c0,0-4.8,1.8-4.9,3.2c-0.1,1.4-0.2,3.3-0.5,3.6c-0.3,0.3-1.6,2-1.2,2.3
		c0.2,0.2,1.4,1.6,2.5,2.2c0,0.2,0.2,1.3-0.7,2.5l0.4,0.4c0.8-1,0.9-2,0.9-2.5c0.2,0.1,0.3,0.1,0.5,0.1c0.3,0,0.7,0,1.1,0
		c-0.1,0.8-0.3,1.9-0.8,2.8l0.6,0.3c0.6-1.1,0.8-2.2,0.9-3.1c0.3,0,0.7,0,1,0c0.2,0.6,0.4,1.4,0.2,2.3l0.5,0.1
		c0.2-0.9,0.1-1.8-0.1-2.4c0.5,0,0.9,0,1.1,0.1c0.1,0,0.1,0.1,0.2,0.1l0.1-0.6c0,0,0.3,0,0.7,0h0c0,0,0,0,0,0c0.2,0,0.4,0,0.6,0
		C9.7,15.3,9.8,15.3,9.9,15.3z M5,9.6c-0.5,0.5-1.2,0.8-1.6,0.8c-0.1,0-0.3,0-0.3-0.1c-0.2-0.2,0-1.1,0.9-1.9
		c0.5-0.5,1.2-0.8,1.6-0.8c0.1,0,0.3,0,0.3,0.1C6,7.9,6,8.1,5.9,8.4C5.7,8.8,5.4,9.2,5,9.6z"/>
	<path class="st0" d="M18.2,11.4c0-0.1,0-0.1,0-0.2c-0.1-0.9-0.4-1.7-1-2.4c0.7,0.3,1.1,0.7,1.1,0.7c-0.7-2.1-2.4-2.1-2.5-2.1
		c-0.7-0.5-1.4-0.9-2-1.3c0.9,1.9,1.3,4,1.5,5l0.2,0.7l-0.7-0.1c-0.4-0.1-0.9-0.1-1.3-0.1c-0.1,0-0.3,0-0.4,0
		c0.1,0.1,0.1,0.2,0.2,0.3l0.3,0.6L13,12.6c0,0-0.6,0.1-1.2,0.1c0.1,0.1,0.2,0.1,0.3,0.2l2.2,0.8l-2.4,0.1c0,0,0,0-0.1,0
		c0.3,0.2,0.5,0.3,0.7,0.4l1.1,0.5l-1.1,0.4c-1.2,0.5-2.4,0.6-3.2,0.6c1,1.5,4.2,2.8,4.2,2.8c-0.2-1.3,1.3-2.4,1.3-2.4
		c0.5,0.1,0.5,2.4,0.5,2.4c0.9-1,1.9-2.3,2.4-4.1c0.5,0.5,0.8,1.2,0.8,1.2C19,14.8,18.6,12.8,18.2,11.4z"/>
</g>
</svg>
