<svg xmlns="http://www.w3.org/2000/svg" viewBox="0 0 20 20">
  <title>disengage-light</title>
  <g id="6e70a570-8f6c-4d87-9dd4-2c78bd6c32be" data-name="disengage-light">
    <g>
      <path d="M14.42,5.73s-.25.77-.3.92l-.01.01v.02l.47.16.32-.95Zm-.93,1.69s-.52.43-.7.59l-.07.05.32.39.77-.64ZM8.84,11.29l-.73.61.32.39.77-.64Zm-1.5,1.25-.76.64.32.39L7.66,12.93ZM6.12,13.57l-.39.32.38.33c.15.14.29.26.29.26l.33-.38ZM7,15.21V16H6.99c-.03-.03-.16-.12-.16-.12l-.29.41.17.12.79.56V15.21Zm-1.8-.49-.29.41.82.58.29-.41Zm-.73.43-.18.18c-.21.21-.53.52-.53.52l.36.36.7-.71ZM2.04,16.17l-.36-.36-.55.55-.35.36.35.35.16.16.35-.36-.16-.15ZM3.1,14.4l-.71.71.35.35.32-.31c.18-.19.39-.4.39-.4Zm.38-2.9H2.04l.55.79.3.42.41-.28-.28-.4v-.01H3.01V12.01L3,12h.48Zm1.21.54-.38.32.01.01c.07.09.65.75.65.75L5.34,12.79Zm1.19-.64-.65.76.39.32.64-.76Zm1.3-1.52-.65.76L6.91,10.96,7.56,10.2Zm3.9-4.57-.58.68.36.36c.11-.14.44-.54.56-.67l.04-.04Zm1.86-1.15L12,4.47l.15.48s.24-.08.47-.16h.01l.47-.16Zm.95-.32.16.48L15,4l-.26.78.47.16L16,3Z" fill="#000000"/>
      <polygon points="3.41 16.91 2.19 18.13 1.84 17.78 1.68 17.62 2.04 17.27 2.19 17.43 3.06 16.56 3.41 16.91" fill="#000000"/>
      <polygon points="4.31 13.89 3.9 14.17 3.46 13.53 3.87 13.25 4.31 13.89" fill="#000000"/>
    </g>
    <polygon points="19.52 17.07 18.1 18.49 14.57 14.95 12.09 17.42 10.68 14.6 13 14 5.02 6.11 3 2 7.14 3.99 15 12 16 10 18 11 15.98 13.54 19.52 17.07" fill="#000000"/>
  </g>
</svg>
