<svg xmlns="http://www.w3.org/2000/svg" viewBox="0 0 20 20">
  <title>dodge-light</title>
  <g id="4a0b7cc4-fdab-41b4-afe0-7d059fee95f1" data-name="dodge-light">
    <path d="M9.5,12.62,7.36,16H0V14.14c.72-.23,2.44-.47,3.16-.73a.58987.58987,0,0,0,.32-.48.88347.88347,0,0,0,0-.23.934.934,0,0,0-.12-.29c-.19-.23-.42-.44-.59-.69-.23-.36-.43-.75-.65-1.15-.2.13-.38.03-.52-.13A4.32852,4.32852,0,0,1,.55,8.35.44924.44924,0,0,1,.6,8c.16-.18.09-.32.02-.48a1.53068,1.53068,0,0,1-.11-.27,6.50187,6.50187,0,0,1-.5-2.3A1.77574,1.77574,0,0,1,.55,3.47a3.17128,3.17128,0,0,0,.67-.8A3.64873,3.64873,0,0,1,4.5,1,4.74832,4.74832,0,0,1,7.43,2.09,4.032,4.032,0,0,1,9.05,4.73,9.244,9.244,0,0,1,9.1,5.8c.41.01.56.14.64.54a.71007.71007,0,0,1,.04.2A5.22463,5.22463,0,0,1,9.65,8.3,3.17471,3.17471,0,0,1,9.41,8.79a.7432.7432,0,0,0-.1.27,5.24529,5.24529,0,0,1-.39,2.25.85385.85385,0,0,0-.03.23,2.058,2.058,0,0,0,.45.93C9.39,12.52,9.44,12.56,9.5,12.62Z" fill="#000000"/>
    <path d="M16,16H10.36l1.65-2.13c1.46.52,3.15,1.08,3.31,1.13A.99746.99746,0,0,1,16,16Z" fill="#000000"/>
    <polygon points="17.73 0.87 16.71 1.26 16.71 1.27 13.5 2.5 15.93 2.49 17.12 2.48 16.48 3.49 10.3 13.22 8.54 16 6 20 9.1 16 11.03 13.51 18 4.51 18.72 3.58 19.13 4.68 20 7 20 0 17.73 0.87" fill="#000000"/>
  </g>
</svg>
