<svg id="Layer_1" data-name="Layer 1" xmlns="http://www.w3.org/2000/svg" viewBox="0 0 38.28 32.24"><defs><style>.cls-1{fill:none;}.cls-2{fill:#000000;}</style></defs><title>Artboard 16</title><path class="cls-1" d="M19.15,18.8a.5.5,0,0,0,.5-.5V9.93a.5.5,0,0,0-1,0V18.3A.5.5,0,0,0,19.15,18.8Z"/><path class="cls-1" d="M23.43,18.8a.5.5,0,0,0,.5-.5V14a.5.5,0,0,0-1,0v4.3A.5.5,0,0,0,23.43,18.8Z"/><path class="cls-1" d="M14.87,18.8a.5.5,0,0,0,.5-.5V14a.5.5,0,0,0-1,0v4.3A.5.5,0,0,0,14.87,18.8Z"/><polygon class="cls-2" points="6.25 27.29 32.03 27.29 31.84 26.76 6.44 26.76 6.25 27.29"/><path class="cls-2" d="M32.92,23.89a2,2,0,0,0-1.68-2H7a2,2,0,0,0-1.68,2,2,2,0,0,0,1.4,1.87H31.52A2,2,0,0,0,32.92,23.89Z"/><path class="cls-2" d="M12.94,10.77a4.1,4.1,0,0,0-1.22-3.88A3.72,3.72,0,0,0,8.61,6,2,2,0,0,0,7,8.48c.15.68.58,1.19.93,1.13a.5.5,0,0,1,.15,1c-.93.13-1.79-.67-2.06-1.91A3,3,0,0,1,8.34,5a4.71,4.71,0,0,1,4,1.11,5.05,5.05,0,0,1,1.55,4.77c-.37,2.78-2.42,4.37-6.07,4.8v5.24H30.43V15.7c-3.65-.42-5.7-2-6.07-4.8a5.05,5.05,0,0,1,1.55-4.77,4.72,4.72,0,0,1,4-1.11,3,3,0,0,1,2.31,3.67c-.27,1.25-1.14,2-2.06,1.91a.5.5,0,0,1-.42-.57.51.51,0,0,1,.57-.42c.36.06.79-.45.93-1.13A2,2,0,0,0,29.67,6a3.72,3.72,0,0,0-3.1.9,4.1,4.1,0,0,0-1.22,3.88c.32,2.36,2.21,3.69,5.62,4a7.5,7.5,0,0,0,7.31-7.37A7.52,7.52,0,0,0,30.63,0h-23A7.52,7.52,0,0,0,0,7.39a7.5,7.5,0,0,0,7.31,7.37C10.73,14.47,12.62,13.13,12.94,10.77Zm10,3.22a.5.5,0,0,1,1,0v4.3a.5.5,0,0,1-1,0ZM18.65,9.93a.5.5,0,0,1,1,0V18.3a.5.5,0,0,1-1,0ZM14.37,14a.5.5,0,0,1,1,0v4.3a.5.5,0,0,1-1,0Z"/><path class="cls-2" d="M34.33,28.29H4.87a.5.5,0,0,1-.19,0H4.34a2,2,0,1,0,0,4h29.6a2,2,0,0,0,.39-3.94Z"/></svg>