<svg id="fa4ec80d-f017-4ccc-9c8e-b84bca3698e7" data-name="castspell-dark" xmlns="http://www.w3.org/2000/svg" viewBox="0 0 20 20">
  <title>ddb-icon-castspell</title>
  <path d="M10.03,6A5.02743,5.02743,0,0,0,5,11.03a4.89,4.89,0,0,0,.23,1.49H5.3a1.61537,1.61537,0,0,1,.33.02s.05.01.14.03a4.377,4.377,0,0,1-.27-1.54,4.535,4.535,0,0,1,9.07,0,4.678,4.678,0,0,1-.16,1.19A1.05285,1.05285,0,0,1,15,11.8a3.94078,3.94078,0,0,0,.07-.77A5.02957,5.02957,0,0,0,10.03,6Z" fill="#383838"/>
  <path d="M12.31142,8.91625s-.766.39833-.766,2.39a.80822.80822,0,0,1,.55153.70473c0,.52089-2.01567,2.14394-2.01567,2.14394H11.017l.59015-.226s1.42222-1.27318,1.42222-2.283C13.02937,11.64584,12.54868,8.91625,12.31142,8.91625Z" fill="#383838"/>
  <path d="M8.73858,12.35844s.86422-.75809,1.13713-.75809a11.97381,11.97381,0,0,0,.28807-1.27359A5.309,5.309,0,0,0,9.14795,8.91625a1.43584,1.43584,0,0,0-.33356.97082c0,.47.6368.77325.6368,1.122A4.68918,4.68918,0,0,1,8.73858,12.35844Z" fill="#383838"/>
  <path d="M1.44642,10.91345A2.84,2.84,0,0,1,1,9.34957c0-2.34646,2.55645-4.312,2.55645-4.312s-.31551.678-.36027.76756a2.08074,2.08074,0,0,0,.4029,2.29361A3.04245,3.04245,0,0,0,4.99473,5.27716a2.87987,2.87987,0,0,0-1.842-2.786,2.64051,2.64051,0,0,1,2.24753,2.786,3.33848,3.33848,0,0,1-1.767,3.25741.211.211,0,0,1-.2212-.04345,2.51722,2.51722,0,0,1-.78473-2.05925A4.35453,4.35453,0,0,0,1.40421,9.33509a3.82836,3.82836,0,0,0,1.36441,2.76055A6.12762,6.12762,0,0,1,1.44642,10.91345Z" fill="#383838"/>
  <path d="M6.35089,5.42989a3.86983,3.86983,0,0,0,.89928-1.9605A6.64829,6.64829,0,0,0,6.36142,1.289a4.32549,4.32549,0,0,0,1.8657.628C9.851,1.91705,8.72482,0,8.72482,0s.81223.86919.63139,1.61007a1.141,1.141,0,0,1-1.12909.71251,2.5229,2.5229,0,0,1-.91113-.1817,2.48031,2.48031,0,0,1,.33838,1.35221A2.83862,2.83862,0,0,1,6.35089,5.42989Z" fill="#383838"/>
  <path d="M15.03555,6.898a3.63374,3.63374,0,0,0,.60961-1.09282c.08163-.90849-.85714-2.0948-1.5102-2.80053a1.3157,1.3157,0,0,1-.0948.72679,1.33217,1.33217,0,0,1-.83608.68993.22827.22827,0,0,1-.13693-.01448,2.714,2.714,0,0,1-1.731-2.37338c-.60543,1.21085,1.06477,3.40959,1.06477,3.40959a4.17121,4.17121,0,0,1-1.58821-2.9429c-.00263-.57538.80349-1.37441.80349-1.37441a2.68853,2.68853,0,0,0,1.555,2.88084.90645.90645,0,0,0,.503-.44635,4.3945,4.3945,0,0,0-.13035-1.472s2.64648,2.17907,2.50428,3.75247C16.00592,6.312,15.03555,6.898,15.03555,6.898Z" fill="#383838"/>
  <path d="M17.26465,9.78934s.40234-1.687,1.16353-2.17492a2.613,2.613,0,0,1-1.25569-1.33529c-.3239-1.09809.77024-2.29625.77024-2.29625a3.66783,3.66783,0,0,0-.38183,2.18433A3.25288,3.25288,0,0,0,19,7.59447,4.93669,4.93669,0,0,0,17.26465,9.78934Z" fill="#383838"/>
  <path d="M18.99,15.57S11.74,19,11,19c-1.99,0-3.28-1-4-1-1.87,0-2.44.23-4.22,2.01H-.01V18.03l1.29-1.94s.86-2.21,1.96-2.82a4.26642,4.26642,0,0,1,2.07-.5c.16,0,.26.01.26.01s.12.03.31.07a9.9198,9.9198,0,0,0,1.96.26,5.592,5.592,0,0,0,2.33-.88s.61-.49.82-.49a.5159.5159,0,0,1,.46.49c0,.24-1.47,1.37-1.47,1.37a4.29555,4.29555,0,0,0-1.22.53c-.13.12-.56.5-.96.85-.14.12-.28.24-.4.35-.21.18005-.36.3-.36.3a1.29126,1.29126,0,0,0,.38-.03,2.02279,2.02279,0,0,0,.31-.08.29643.29643,0,0,0,.08-.04.53525.53525,0,0,0,.11-.05c.11-.04.22-.09.33-.14a.405.405,0,0,1,.09-.05H8.35a7.04291,7.04291,0,0,1,1.45-.72c.4,0,.92.06,1.16.06a14.30375,14.30375,0,0,0,1.57-.39A6.198,6.198,0,0,0,13.72,13.51c.08-.08.22-.28.39-.5a3.492,3.492,0,0,1,.85-.94.26028.26028,0,0,1,.11-.03c.37,0,.69-.38,1.44.37,0,0-2.18,2.11-2.18,2.79l-1.5.43a8.39669,8.39669,0,0,0-1.24.19.9383.9383,0,0,1-.13.04c-.15.06-.25.12-.25.2,0,0,.72.04,1.57.07.16,0,.31995.01.48.01.36.00995.72.02,1.04.00995a7.9573,7.9573,0,0,1,2.36-.68,4.59379,4.59379,0,0,1,1.53-.59C18.72,14.88,18.99,15.57,18.99,15.57Z" fill="#383838"/>
</svg>
