<svg xmlns="http://www.w3.org/2000/svg" viewBox="0 0 20 20">
  <title>help-light</title>
  <g id="bbf79f74-beec-4e11-830c-6d12f7f34219" data-name="help-light">
    <g>
      <path d="M6,17a.97939.97939,0,0,1-1,1,1.11469,1.11469,0,0,1-.27-.03.82066.82066,0,0,1-.45-.25A1.1477,1.1477,0,0,1,4,17s0-2,1-2c.53,0,.78.57.9,1.1a3.09716,3.09716,0,0,1,.08.62A2.65269,2.65269,0,0,1,6,17Z" fill="#000000"/>
      <path d="M13.5,15a1.2894,1.2894,0,0,1-.12.5.913.913,0,0,1-.88.5.913.913,0,0,1-.88-.5,1.2894,1.2894,0,0,1-.12-.5s0-1.5,1-1.5S13.5,15,13.5,15Z" fill="#000000"/>
      <path d="M8.5,16a.97939.97939,0,0,1-1,1,.93319.93319,0,0,1-.98-.82A1.11361,1.11361,0,0,1,6.5,16s0-.21.02-.52c.05-.85.24-2.48.98-2.48.61,0,.85,1.13.94,2a4.98506,4.98506,0,0,1,.04.5C8.5,15.8,8.5,16,8.5,16Z" fill="#000000"/>
      <path d="M11,15a1.2894,1.2894,0,0,1-.12.5A.913.913,0,0,1,10,16a.913.913,0,0,1-.88-.5A1.2894,1.2894,0,0,1,9,15s0-3,1-3S11,15,11,15Z" fill="#000000"/>
    </g>
    <path d="M3.76,18.24a1.89884,1.89884,0,0,0,.39.31l-1.29,1.3-.15.14H0v-7.7l.15-.14,2.02-2.03.2.51L.5,12.5v6.99H2.51Z" fill="#000000"/>
    <path d="M20,0H13.98L11.35,2.65C11.24,2.53,10.12,1.5,7,1.5,5.89,1.5,5.5,2.85,5.5,4v.38L2,7l2,5c2,0,1-4,1-4L6,7V4S6,2,7,2c3,0,4,1,4,1L10,4H9s0,2,1,2h4.8a.89486.89486,0,0,0,.23-.02A3.49331,3.49331,0,0,0,17,5h1a.97939.97939,0,0,1,1,1c0,1.55705-1.33,1.49222-2,1.49222H16l.5.5H17V9a.97939.97939,0,0,1-1,1H15l.5.5H16V12c0,.45843-1,.5-1,.5H14l.5.5H15c0,1.25-.01425,1.75-.5,1.75v.66c1.06162,0,1-.91439,1-2.49a.907.907,0,0,0,1-.92V10.42A1.41954,1.41954,0,0,0,17.5,9V7.9722c.8-.08,2,.02895,2-1.9722a1.40119,1.40119,0,0,0-1.07-1.43L20,3Z" fill="#000000"/>
  </g>
</svg>
