<svg xmlns="http://www.w3.org/2000/svg" viewBox="0 0 20 20">
  <title>hide-light</title>
  <g id="e500a13b-2cbf-4a08-af16-4eb8df6f4f3c" data-name="hide-light">
    <g>
      <path d="M6.42914,16.50806l-.50757-.86163-.00146.00085-.00018.00012-.00067.00037L5.918,15.6485l-.00073.00043-.00134.00073-.00037.00024c-.0274.01587-1.70807.72009-1.83783.76978l.35754.9339c.5802-.22211,1.1795-.47,1.78137-.73694A2.08366,2.08366,0,0,0,6.42914,16.50806Z" fill="#000000"/>
      <polygon points="1.01 19.997 1.01 19.997 1.012 19.998 1.012 19.998 1.013 20 2.695 20 2.695 19 1.01 19 1.01 19.997" fill="#000000"/>
      <path d="M4.54919,10.2663l.92145-.38855A6.02786,6.02786,0,0,1,5.057,8.29047l-.00073-.01031L4.05774,8.335l.00037.00623c.00122.02063.00293.0412.00525.06165a7.12183,7.12183,0,0,0,.41827,1.69659Z" fill="#000000"/>
      <path d="M2.48456,18.03015l-.296-.95514c-.05188.01605-1.88263.55872-1.9104.56952l.36316.93176C.793,18.51709,1.99933,18.18054,2.48456,18.03015Z" fill="#000000"/>
      <path d="M4.59015,6.692l.98376-.17957a4.35569,4.35569,0,0,1-.0752-.56995,4.34519,4.34519,0,0,1,.07544-1.042L4.59344,4.7049A3.83729,3.83729,0,0,0,4.59015,6.692Z" fill="#000000"/>
      <polygon points="6.705 1.396 6.705 1.396 6.705 1.396 6.705 1.396" fill="#000000"/>
      <path d="M5.36414,2.87378l.82874.55969a4.78742,4.78742,0,0,1,.37256-.48071A8.53131,8.53131,0,0,1,7.36194,2.15l-.65717-.75372A2.54894,2.54894,0,0,0,5.36414,2.87378Z" fill="#000000"/>
      <rect x="4.69513" y="19" width="2" height="1" fill="#000000"/>
      <path d="M5.43353,12.01685a14.15552,14.15552,0,0,0,.7702,1.8374l.84973-.52716a5.57277,5.57277,0,0,1-.652-1.56158Z" fill="#000000"/>
      <path d="M15.84,6.15c-.02.14-.04.28-.06.43-.01.1-.02.21-.04.31006-.02.12-.03.24-.06.35-.05.23-.1.42.14.6a.61242.61242,0,0,1,.17761.41439A4.1696,4.1696,0,0,1,15.22,11.13c-.0929.14794-.25.33-.43994.33a.38053.38053,0,0,1-.17-.04c-.05.15-.09.29-.13.43,0,0-.17.53-.22.68a8.98178,8.98178,0,0,1-.41.98c-.1.17-.2.34-.29.52a.8118.8118,0,0,0-.08.38,1.3511,1.3511,0,0,0,.05.29A1.54338,1.54338,0,0,0,14.22,15.81a2.248,2.248,0,0,0,.44.21c.91.33,4.06,1.42,4.97,1.71L18.75,20H8.7V19H10V1.02a5.07419,5.07419,0,0,0-.65.09,4.494,4.494,0,0,0-.6.17L8.4.35A2.08944,2.08944,0,0,1,8.7.24,6.96574,6.96574,0,0,1,10.52,0a5.598,5.598,0,0,1,1.44.27A.00978.00978,0,0,0,11.97.28c.04.01.08.03.12006.04V.33a4.74152,4.74152,0,0,1,1.58,1.05c.11.11.23.22.34.33.12.1.25.2.38.3,0,0,.73655.50874.78.56a.95777.95777,0,0,1,.09.14,3.10273,3.10273,0,0,1,.5,1.19,8.968,8.968,0,0,1,.12,1.46,1.61776,1.61776,0,0,1-.01.22Z" fill="#000000"/>
    </g>
  </g>
</svg>
