<?xml version="1.0" encoding="utf-8"?>
<!-- Generator: Adobe Illustrator 20.0.0, SVG Export Plug-In . SVG Version: 6.00 Build 0)  -->
<svg version="1.1" id="Layer_1" xmlns="http://www.w3.org/2000/svg" xmlns:xlink="http://www.w3.org/1999/xlink" x="0px" y="0px"
	 viewBox="0 0 19.4 19" style="enable-background:new 0 0 19.4 19;" xml:space="preserve">
<style type="text/css">
	.st0{fill:#FFFFFF;}
</style>
<g>
	<path class="st0" d="M-215.6,8.8c0,0,1.5,1.4,4.2,0.9c0,0-0.5-2.7-4.2-2.6c0,0,1.4-2.4-1.2-4.9c-2.7-2.5-7.6-2.9-7.6-2.9
		s6.7,3.5,5.9,5.9c0,0-3.2,1.2-3.5,3c-0.3,1.8-0.7,2.7-3.3,4.3c0,0-1.1,1-0.9,1.5c0.1,0.5,2.7,3.5,3.9,3.4s4-0.9,6.1-0.5
		c2.1,0.5,3.8-3.3,2.4-5.4S-215.6,8.8-215.6,8.8z M-220.8,10.9c1.3-2.4,3.6-2.7,3.6-2.7C-217.7,11.8-220.8,10.9-220.8,10.9z"/>
	<path class="st0" d="M-214.3,4.2c0.3,0.8,0.3,1.5,0.1,2.1c2.6,0.4,3.6,2.2,3.8,3.2l0.2,0.8l-0.8,0.2c-0.5,0.1-0.9,0.1-1.4,0.1h0
		c-0.3,0-0.7,0-1-0.1c0.1,0.2,0.3,0.4,0.4,0.6c0.9,1.3,0.9,3.1,0.1,4.7c-0.1,0.3-0.3,0.5-0.5,0.8c2.3,0.9,1.5,2.4,3.6,2.4
		s3.6-12.7,0-14.4C-210.6,4.1-213.1,4.1-214.3,4.2z"/>
	<path class="st0" d="M-221.9,5.8l1.8-1.5c-1.8-0.2-5.9-4.2-5.8-4C-225.3,3.4-221.9,5.8-221.9,5.8z"/>
</g>
<g>
	<path class="st0" d="M-79.2,15.7c0-0.4,0-0.7,0-1c0.3,0.1,0.5,0.3,0.9,0.4c-0.7-2-0.3-3.6,1.2-5c-0.6-0.4-1.1-0.8-1.6-1.2
		c-0.1,0.7-0.2,1.2-0.2,1.7c-0.1,0-0.2,0-0.3,0c-0.1-0.6-0.3-1.2-0.4-1.7c-0.5-0.1-1-0.2-1.5-0.3c0.1,0.2,0.3,0.5,0.3,0.7
		c-0.1,0.6,0.2,0.8,0.5,1.1c0.9,0.7,1.3,1.7,1.1,2.9c-0.1,0.8-1.6,1.3-1.3,2.3c0,0,0,0.1,0.1,0.1C-80.4,15.6-79.4,15.7-79.2,15.7z"
		/>
	<path class="st0" d="M-81.3,8.6C-81.2,8.6-81.2,8.6-81.3,8.6C-81.2,8.6-81.2,8.6-81.3,8.6L-81.3,8.6z"/>
	<path class="st0" d="M-71.1,1.9C-71.7,1.7-72.5,1-73,1.1c-0.9,0-2.6,1.5-3.3,2.1c1.4-0.2,3.9-0.9,5-1.1C-71.2,2-71.2,2-71.1,1.9z"
		/>
	<path class="st0" d="M-63.6,10.3c-0.6-1.7-0.9-3.5-2.5-4.3c-1.1,1.3-1.2,1.4-2.2,1.2c0.2-0.1,0.4-0.1,0.5-0.2
		c0.6-0.3,1.2-0.7,1.3-1.6c0.1-0.8,0-1.6-0.6-2.2C-67.5,2.7-68,2.6-68.5,3c-0.4,0.3-0.8,0.5-1.1,0.8c0,0.1-0.1,0.1-0.2,0.1
		C-70,3.9-70,4-70.1,4.1c0-0.1-0.1-0.1-0.1-0.2c0,0,0.1-0.1,0.1-0.1c-0.1-0.1-0.2-0.3-0.3-0.4c-0.1,0-0.3,0-0.4,0
		c-1.1-0.2-2.1,0-3.2,0.3c-1.3,0.3-2.5,0.7-3.8,0.8c-0.2,0-0.3,0.1-0.5,0.1c0,0,0,0,0,0.1c0.1,0.3,0,0.7-0.2,1c0.1,0,0.2,0,0.3-0.1
		l0,0.2c-1.4,0.5-2.8,0.9-4.3,1.4c0.2,0.7,0.4,1.3,0.6,1.8c0.2-0.2,0.4-0.3,0.5-0.4c-0.1-0.4,0.1-0.3,0.3-0.3
		c0.7,0.1,1.4,0.3,2.1,0.4c1.4,0.2,2.1,1.2,2.5,2.7c0.3,1.2-0.2,2.2-0.9,3c0,0-0.1,0.1-0.1,0.2c-0.3,1.7-1.2,2.2-2.7,2
		c0.7,0.6,1.4,0.8,2.1,0.5c0.6-0.2,1.2-0.5,1.9-0.6c1.2-0.3,2.4-0.7,3.6-0.2c0.8,0.4,1.5,1.2,2.3,1.7c0.9,0.6,1.7,1.2,2.6,1.7
		c0.2-0.5,0.3-1,0.5-1.5c0.2-0.7,0.6-1.4,0.7-2.1c0-0.2,0.2-0.3,0.3-0.2c0.2-0.3,0.3-0.7,0.5-1.1c0.1,0.5,0.2,0.8,0.3,1.3
		c0.2-0.4,0.3-0.7,0.4-1c0.3-1.2,0.6-2.4,0.7-3.6c0.1-0.7-0.2-1.5-0.4-2.1C-64.4,9.5-64,9.9-63.6,10.3z M-76.9,8.2
		c0.4-0.6,0.8-2.1,1.2-2.1c1.3-0.1,1.5,1.4,2,2.1C-74.6,8.3-75.9,8.2-76.9,8.2z M-70.3,7.1c0.4-0.8,1.1-2.7,1.5-3.5
		c0,0,0.5,0.3,0.7,0.4c0.1,0,0.1,0.1,0.1,0.1c-0.1,0.4-0.2,0.8-0.3,1.2c0.1,0,0.3,0.2,0.5,0.3c0.2,0.1,0.3,0.2,0.4,0.2
		C-67.9,6.1-69.8,6.9-70.3,7.1z"/>
	<path class="st0" d="M-82.2,5.6c0.1,0,0.1,0,0.2,0c0,0,0,0,0,0c0.1,0,0.1,0,0.2,0c0,0,0,0,0,0c0,0,0,0,0.1,0c0,0,0,0,0,0
		c0,0,0,0,0,0c0,0,0,0,0,0c0,0,0,0,0,0c0,0,0,0,0,0c0,0,0,0,0-0.1c0,0,0,0,0,0c0,0,0,0,0-0.1c0,0,0,0,0-0.1c0,0,0-0.1,0-0.1
		c0,0,0,0,0-0.1c0,0,0-0.1,0-0.1c0,0,0,0,0-0.1c0-0.1,0-0.2,0-0.3c0.3,0.2,0.4,0.4,0.5,0.4c0.1,0,0.3,0,0.4,0c0.1,0,0.2,0,0.4,0
		c0,0,0,0,0,0c0,0,0,0,0,0c0.1,0,0.1,0,0.2,0c0,0,0,0,0,0c0.1,0,0.1,0,0.1-0.1c0.1-0.2,0.1-0.3,0.1-0.5c-0.1-0.3-0.4-0.5-0.7-0.7
		c-0.1-0.1-0.3-0.1-0.4-0.2c0,0-0.1,0-0.1,0c-0.1,0-0.2,0-0.2,0c-0.1,0-0.2,0-0.3,0c0,0,0,0,0,0c-0.1,0-0.2,0.1-0.2,0.1
		c0,0,0,0-0.1,0.1c-0.1,0-0.1,0.1-0.2,0.2c0,0,0,0,0,0c-0.1,0.1-0.2,0.2-0.2,0.3c0,0,0,0.1-0.1,0.1c-0.1,0.1-0.1,0.2-0.2,0.3
		c0,0,0,0.1-0.1,0.1c-0.1,0.2-0.1,0.3-0.2,0.5c0.1,0,0.1,0,0.2,0c0,0,0,0,0,0C-82.3,5.6-82.2,5.6-82.2,5.6z"/>
</g>
<g>
	<path class="st0" d="M2.7,3.6L2.7,3.6C2.7,3.5,2.8,3.3,3,3.1c0,0,0,0,0,0C3.1,3,3.2,2.9,3.3,2.7c0,0,0,0,0,0C3.6,2.5,4,2.3,4.4,2.2
		C2.2,1,0.9,0.7,1.5,1.6C1.8,2.1,2.3,2.8,2.7,3.6z"/>
	<path class="st0" d="M14,4.9L14,4.9C14,4.9,14,4.9,14,4.9z"/>
	<path class="st0" d="M18.2,10.2c-0.5-1.2-1.6-1.5-2.5-2.5c-0.6-0.7-1.2-1.3-1.8-2c-0.2-0.2-0.3-0.5-0.5-0.7c0.1,0,0.2,0,0.3,0
		c0,0,0.1,0,0.1,0c0,0,0-0.1,0-0.1c-0.2-0.2-0.4-0.4-0.5-0.6c-0.9-0.9-1.9-1.5-3-2C9.7,2,9.1,1.8,8.5,1.7C5.5,0.1,3.7-0.5,4.4,0.5
		c0.4,0.7,1,1.6,1.2,2.5c0,0-0.1,0-0.1,0C5.4,3.2,5.3,3.2,5.3,3.3c0.1,0.1,0,0.3-0.1,0.4C5,3.8,4.8,4,4.7,4.2
		C4.2,4.5,3.8,4.9,3.6,5.4c0,0,0.1,0,0.1,0C3.3,5.9,3.1,6.5,3.2,7.2C3.3,7.8,3.1,8.4,2.8,9c-0.3,0.5-0.7,0.9-1.2,1.3
		c-0.5,0.4-1,0.8-1.5,1.2c-0.2,0.1-0.2,0.2,0,0.3c0.1,0.1,0.1,0.1,0.2,0.2l-0.1,0.2l-0.3,1l0.9,0.3c0.1,0,0.1,0.1,0.2,0.1l0.1,0
		l0.2,0c0,0,0.1,0,0.1,0c0.1,0.1,0.3,0.1,0.4,0.1h0l0.1,0c0.1,0,0.2,0,0.3,0c0.3,0,0.6,0,0.9-0.1c0.8-0.2,1.5-0.4,2.3-0.7
		c0.5-0.2,1-0.3,1.5-0.4c0.1,0.3,0.3,0.5,0.5,0.7c0.1,0.1,0.2,0.2,0.2,0.3l-0.1,0.3L7.8,14c0.4,0.8,0.3,1.1,0.3,1.2l0,0.1l0,0.1
		c0,0.4-0.4,1.2-0.6,1.6l-1,1.8l2-0.3c0.7-0.1,1.4-0.7,2.4-1.8c-0.4,0.8-0.9,1.7-1.3,2c0.8,0,1.5,0.1,2.3,0.1c0.4,0,0.7,0,1.1,0
		c0.1,0,0.1,0,0.2,0c0.3-0.1,0.7-0.2,1-0.3c0.5-0.5,1.3-2.5,1.6-3c0.2-0.4,0.8,0,0.6,0.4c-0.2,0.4-0.5,1.9-0.7,2.2
		c0.6-0.2,1.3-0.5,1.9-0.9c0.3-0.6,0.7-1.1,0.9-1.7c0-0.4,0-0.4,0.1-1.1c0,0,0-0.1,0-0.1c-0.2-0.6-1.7-2.2-1.8-2.8
		c0-0.2-0.1-0.4-0.1-0.6c0,0,1.4,0.9,1.4,0.9c0.1,0.2,1,0.6,1.1,0.8c0,0.1,0.1,0.1,0.1,0.1c0-0.1,0.1-0.1,0.1-0.2
		C19.4,11.9,18.5,10.9,18.2,10.2z M4.4,6.9l1-1h1v1l-1,0.5H4.8L4.4,6.9z"/>
</g>
<g>
	<path class="st0" d="M85,7.1c0.4,0.2,0.7,0.4,1,0.7c1.3-0.2,2.9-0.2,3.7-3.2C90.1,3,91,2.1,92,1.6c-0.3,0-0.5-0.1-0.8-0.1
		c0.6-0.3,0.7-0.6,0.7-0.6C91.6,1,91.4,1,91.4,1c0.8-0.3,0.9-0.7,0.9-0.7c-0.4,0.1-0.4,0-0.4,0c0.5-0.2,0.7-0.5,0.7-0.5
		c-0.2,0-0.5,0.2-0.5,0.2c0.3-0.3,1.2-0.7,1.2-0.7c-3-0.2-5.2,1.6-6.1,2.7c-1.9,1-2.7,2.9-2.5,4.9L85,7.1z"/>
	<path class="st0" d="M90.8,5.6c-0.1,0.4-0.2,0.7-0.3,1c0,0,0.1,0,0.1,0c0.6,0,1.7,0.5,1.7,1.1s-0.8,1.7-1.4,1.7
		c-0.5,0-1.3-0.6-1.4-1.1c-0.6,0.6-1.3,0.5-1.8,0.5c0.5,0.7,0.1,1.5,0.1,1.6l0.3,0.3l-0.6,0.1l0.1,0.2l0,0c0,0,2.7,1.6,4.7,1.4
		c1.9-0.2,2.5-2.2,2.6-2.3L95,9.6l0.2,0.4c0.1,0.2,0.3,0.4,0.4,0.6C95.4,9.9,95,9.2,95,9.2L95.3,9c-0.1-0.3-0.2-0.5-0.2-0.5l0.3-0.2
		C95.2,7.8,95,7.6,95,7.6l-1.2-1.1l0.8,0.4l0.2-0.3c0,0,0,0,0.1,0c0.1,0,0.2,0.1,0.3,0.1c-0.4-0.3-0.6-0.5-0.6-0.5l-0.8-0.7l0.9,0.3
		c-1-0.6-2.5-1.2-3.2-1.4l0.1-0.2C91.1,4.5,90.9,5,90.8,5.6z"/>
	<path class="st0" d="M85.6,10.8c0,0,0-0.9-0.4-1.7c-0.1-0.2-0.3-0.5-0.5-0.7C84.5,8.1,84.3,8,84,7.8c0,0-1.7,2.3-0.3,4.6
		c0.1,0.1,0.2,0.3,0.3,0.4c0,0,0-0.3,0.2-0.7C84.4,11.6,84.8,10.9,85.6,10.8z"/>
	<path class="st0" d="M101.1,13.6c0,0,0.2,0.1,0.5,0.5c0,0-0.3-2.5-1.8-3.6c0,0,0.8,0,1.2,0.5c0,0-0.2-1.4-1.1-1.9
		c0,0,0.7,0,0.9,0.2c0,0-0.4-1.6-1.7-2.1c0,0,0.6,0,0.7,0.2c0,0-0.2-1.4-2.2-2.2c0,0,0.6,0,0.9,0.2L97.9,5c0,0-0.6-0.7-1.6-1.5
		c0.5-0.2,1.1-0.3,1.1-0.3C97.2,3.2,97,3,97,3c0.4,0.1,0.9-0.1,0.9-0.1c-0.1,0-0.3-0.1-0.3-0.1c1.1,0,1.4-0.4,1.4-0.4
		c-0.4,0-0.7-0.2-0.7-0.2c1.1,0,1.5-0.4,1.5-0.4c-0.6,0-0.6-0.2-0.6-0.2c0.8,0.1,1.2-0.2,1.2-0.2c-0.3-0.1-0.7,0-0.7,0
		c0.5-0.3,1.9-0.3,1.9-0.3C96.4-1.5,92,2.1,92,2.1s0,0,0,0c-0.4,0.2-0.7,0.5-1,0.9c0.7,0.3,4.6,1.8,5.4,2.7l0.5,0.6L95.8,6
		c0.2,0.1,0.3,0.3,0.5,0.5L96.9,7l-0.8-0.1c0.1,0.1,0.1,0.1,0.2,0.2l0.3,0.4l-0.5,0c0,0,0,0,0,0c0.2,0.3,0.5,0.7,0.7,1.3L97,9.4
		l-0.6-0.3c0,0-0.1,0-0.2-0.1c0,0.2,0.1,0.4,0.1,0.6l0,0.5L96.2,10c0.2,0.6,0.5,1.3,0.6,1.8l0.1,0.7l-0.5-0.4c0,0-0.6-0.5-1-1
		c-0.4,0.8-1.4,2.4-3.5,2.6c-0.2,0-0.4,0-0.6,0c-2.1,0-4.4-1.1-5.3-1.6c-0.3-0.1-0.7-0.2-1-0.2c-0.2,0.4-0.3,1-0.3,1l-0.2,1.7l0,0
		c0.2,1.2,1.3,3,1.3,3c0.3,0.7,1.3,1.3,1.3,1.3c-0.4-0.5-0.4-1.4-0.4-1.4c1.5,1.6,3.2,1.6,3.2,1.6c-0.5-0.8-0.1-1.7-0.1-1.7
		c0.5,1.2,1.9,1.6,1.9,1.6c0.7-1,0.4-1.7,0.4-1.7c1.1,1.7,4.1,1.8,4.1,1.8c-0.6-1-0.3-2-0.3-2c0.5,1.4,2.6,1.8,2.6,1.8
		c-0.4-0.6-0.3-1.4-0.3-1.4c0.5,0.8,1.6,0.8,1.6,0.8c-0.6-0.6-0.8-2.2-0.8-2.2c1.5,1.3,1.4,3.1,1.4,3.1c0.9-0.4,1.1-1,1.2-1.3l0,0
		c0,0,0,0,0,0c0-0.2,0-0.3,0-0.3l0,0C101.8,16.6,101.8,15.2,101.1,13.6z"/>
</g>
<path class="st0" d="M179.5,16.1c0,0-1-1.5-1.1-4.4c0,0,0.3,0.9,0.7,1.9c0,0,0.2-1-0.6-3.6c0.1,0.2,0.7,1.8,0.8,2.4
	c0,0-0.1-6.4-2.7-8c0.1,0,0.8,0.1,2.5,2.4c0,0-1.4-3.3-4.2-4.2l2.4,0.7c0,0-1.6-1.4-5.8-1.4c0,0,1.5-0.2,2.1,0
	c-0.8-0.2-5.5-1.1-8.9,2c0,0-1.2,0-1.6,0.4c0,0-2.2-0.2-3.1,1.4c-1.2,2.1,0.3,4,1.1,4.7c0,0-0.2-1.6,0.2-2.2c0,0,1.1,0.7,3.3,0.6
	c6-0.4,4.3,2.2,2.4,4c0,0-1,0.9-3,3c0,0,3-0.9,3.4-1.5c0,0,0.8,1.1,1,1.9c0,0,0.7-0.8,0.9-1.6c0,0,0.1,0.9,0.2,1.1
	c0,0,0.4-0.2,0.5-0.6c0,0,0.2,0.7,0.4,0.8c0,0,0.3-0.5,0.3-0.8c0,0,0.2,1.1,1,1.8c0,0,0.3-0.5,0.3-1c0,0,0.1,0.3,0.4,0.5
	c0,0,0.4-1,0.5-2.3c0,0,0.2,2.3,1.1,3.1c0,0,0.4-0.7,0.3-1.4c0,0,1.3,1.1,2.3,1.7c0,0-0.4-0.7-0.4-1.3c0,0,0,0.1,2.4,1
	c0,0,0.3-1.2,0-2.3C178.7,15.2,178.9,15.8,179.5,16.1z M168.4,5.6c-0.6,0-1.1-0.2-1.2-0.8c0-0.2,0-0.3,0.1-0.4c0,0,0,0,0,0
	c0.6-0.5,1.2-0.8,2.7-0.2C170,4.7,169.1,5.5,168.4,5.6z"/>
<g>
	<path class="st0" d="M-144.3,3.8c0,0-0.6-1.7-2.4-2.2l0.6,2.8L-144.3,3.8z"/>
	<path class="st0" d="M-140,15.8c0.2,0,0.3,0,0.5,0c0.1,0,0.2,0,0.2,0c0.2,0,0.4-0.1,0.6-0.1c0.1,0,0.2,0,0.2-0.1
		c0.3-0.1,0.5-0.2,0.8-0.3c-0.5-0.2-1.2-0.7-1.9-1.5c0.1,0,0.2,0,0.3,0c0,0,0.1,0,0.1,0c0.1,0,0.1,0,0.2,0h0.1c0.1,0,0.1,0,0.2,0
		h0.1c0,0,0.1,0,0.1,0h0c0,0,0,0,0,0c0.1,0,0.1,0,0.2,0h0c0,0,0.1,0,0.1,0c-0.5-0.2-0.9-0.7-1.2-1.2c0.2,0,0.4,0,0.7,0c0,0,0,0,0,0
		h0.1c0.1,0,0.2,0,0.3,0h0.1c0.1,0,0.2,0,0.2,0c0,0,0.1,0,0.1,0c0.1,0,0.2,0,0.3,0c0,0,0,0,0,0c0.1,0,0.1,0,0.2,0c0,0,0,0,0.1,0
		c0,0,0.1,0,0.1,0h0c0,0,0,0,0,0c-0.2-0.4-0.5-0.6-0.8-0.9c0.2,0,0.4-0.1,0.6-0.1c0.1,0,0.1,0,0.2,0c0.2,0,0.3,0,0.5,0
		c0.1,0,0.3,0,0.5,0c0.1,0,0.2,0,0.2,0c0.2,0,0.5,0.1,0.8,0.1c0-0.1-0.1-0.3-0.1-0.5c0-0.1-0.1-0.2-0.1-0.3c0-0.1,0-0.2-0.1-0.3
		c0-0.2-0.1-0.3-0.1-0.5c0,0,0-0.1,0-0.1c-0.2-0.9-0.6-1.9-1-2.9c0,0,0,0,0,0c-0.1-0.3-0.2-0.5-0.4-0.8c-0.3-0.6-0.6-1.1-0.9-1.6
		c-0.2,0-0.4,0-0.7,0c0,0-1.3-2.8-4.7-4.1v3.9c0,0-4.8,1.8-4.9,3.2c-0.1,1.4-0.2,3.3-0.5,3.6c-0.3,0.3-1.6,2-1.2,2.3
		c0.2,0.2,1.4,1.6,2.5,2.2c0,0.2,0.2,1.3-0.7,2.5l0.4,0.4c0.8-1,0.9-2,0.9-2.5c0.2,0.1,0.3,0.1,0.5,0.1c0.3,0,0.7,0,1.1,0
		c-0.1,0.8-0.3,1.9-0.8,2.8l0.6,0.3c0.6-1.1,0.8-2.2,0.9-3.1c0.3,0,0.7,0,1,0c0.2,0.6,0.4,1.4,0.2,2.3l0.5,0.1
		c0.2-0.9,0.1-1.8-0.1-2.4c0.5,0,0.9,0,1.1,0.1c0.1,0,0.1,0.1,0.2,0.1l0.1-0.6c0,0,0.3,0,0.7,0h0c0,0,0,0,0,0c0.2,0,0.4,0,0.6,0
		C-140.1,15.8-140.1,15.8-140,15.8z M-144.9,10.1c-0.5,0.5-1.2,0.8-1.6,0.8c-0.1,0-0.3,0-0.3-0.1c-0.2-0.2,0-1.1,0.9-1.9
		c0.5-0.5,1.2-0.8,1.6-0.8c0.1,0,0.3,0,0.3,0.1c0.1,0.1,0.1,0.4,0,0.6C-144.2,9.3-144.5,9.7-144.9,10.1z"/>
	<path class="st0" d="M-131.6,11.9c0-0.1,0-0.1,0-0.2c-0.1-0.9-0.4-1.7-1-2.4c0.7,0.3,1.1,0.7,1.1,0.7c-0.7-2.1-2.4-2.1-2.5-2.1
		c-0.7-0.5-1.4-0.9-2-1.3c0.9,1.9,1.3,4,1.5,5l0.2,0.7l-0.7-0.1c-0.4-0.1-0.9-0.1-1.3-0.1c-0.1,0-0.3,0-0.4,0
		c0.1,0.1,0.1,0.2,0.2,0.3l0.3,0.6l-0.6,0.1c0,0-0.6,0.1-1.2,0.1c0.1,0.1,0.2,0.1,0.3,0.2l2.2,0.8l-2.4,0.1c0,0,0,0-0.1,0
		c0.3,0.2,0.5,0.3,0.7,0.4l1.1,0.5l-1.1,0.4c-1.2,0.5-2.4,0.6-3.2,0.6c1,1.5,4.2,2.8,4.2,2.8c-0.2-1.3,1.3-2.4,1.3-2.4
		c0.5,0.1,0.5,2.4,0.5,2.4c0.9-1,1.9-2.3,2.4-4.1c0.5,0.5,0.8,1.2,0.8,1.2C-130.9,15.2-131.2,13.3-131.6,11.9z"/>
</g>
</svg>
