<svg xmlns="http://www.w3.org/2000/svg" viewBox="0 0 19.63 19.5"><defs><style>.cls-1{fill:#000;}.cls-2{fill:#000000;}</style></defs><title>Asset 40</title><g id="Layer_2" data-name="Layer 2"><g id="Layer_1-2" data-name="Layer 1"><path class="cls-1" d="M19.63,17.73c-.92-.29-4.07-1.39-5-1.71a1.56,1.56,0,0,1-1.13-1.32,1.4,1.4,0,0,1-.06-.29,1,1,0,0,1,.08-.38c.17-.34.39-.66.53-1,.2-.52.35-1.05.52-1.59.28.11.47-.06.6-.3A5.48,5.48,0,0,0,16,8.26a.6.6,0,0,0-.16-.42c-.24-.18-.19-.37-.14-.59s0-.23.06-.35a8.3,8.3,0,0,0,0-3A2.23,2.23,0,0,0,14.7,2.22a4,4,0,0,1-1-.83A4.73,4.73,0,0,0,9.15.13,6.11,6.11,0,0,0,5.81,2.29,5.08,5.08,0,0,0,4.5,6a12.15,12.15,0,0,0,.21,1.34c-.5.12-.65.32-.65.85a1.94,1.94,0,0,0,0,.25,6.85,6.85,0,0,0,.62,2.15,3.7,3.7,0,0,0,.43.56.84.84,0,0,1,.19.3,6.81,6.81,0,0,0,1.07,2.7.39.39,0,0,1,.07.27c-.07.31-.16.61-.25.92a.61.61,0,0,1-.38.39,31.27,31.27,0,0,1-5,1.77c-.25.06-.49.17-.79.28.32.44.66,1.36,1,1.75H18.37Z"/><path class="cls-2" d="M6.7,1.4l-.12.1h0a10,10,0,0,0-.72.74H5.6l0,0h0l-.21.3.83.56A4.79,4.79,0,0,1,6.57,3a8.53,8.53,0,0,1,.8-.8L6.7,1.4ZM4.59,4.7q0,.13,0,.26h0a5.42,5.42,0,0,0,0,.89h0V6h0a4.83,4.83,0,0,0,.06.5h0v0h0v0h0v.06l1-.18a4.36,4.36,0,0,1-.08-.57,4.34,4.34,0,0,1,.08-1l-1-.2Zm.46,3.58-1,.05V8.4h0a7.1,7.1,0,0,0,.43,1.73h0l0,.09.92-.39a6,6,0,0,1-.41-1.59ZM6.4,11.77l-1,.25q.06.22.12.43h0v0h0v0h.07a6.51,6.51,0,0,0,.27.63h0v0H6l.18.31.85-.53a5.57,5.57,0,0,1-.65-1.56Zm-.48,3.88,0,0h0l0,0H5.63l-1.09.46H4.39l-.31.12.36.93c.58-.22,1.18-.47,1.78-.74l.21-.11-.51-.86ZM2.19,17.08q-.66.21-1.34.38H.54l-.26.1.36.93A3.65,3.65,0,0,1,1,18.44c.48-.12,1-.26,1.45-.41l-.3-1ZM2.7,18.5H1v.63H1v0l-.19.12a2,2,0,0,0,.18.25H2.7v-1Zm4,0h-2v1h2v-1Zm4,0h-2v1h2v-1Zm4,0h-2v1h2v-1Zm3.67,0v.6h0v-.6H16.7v1h1.69l.17-.24-.19-.14v-.6ZM17.59,17l-.33.95,1.76.6.31-.44.15-.46-.56-.19L17.59,17Zm-3.68-1.5-.74.67a2.76,2.76,0,0,0,1.15.75l1.05.37.33-.94-.28-.1L14.66,16h-.15l0,0h0a1.64,1.64,0,0,1-.54-.39Zm-.39-4,0,.05c-.11.36-.22.71-.34,1a4,4,0,0,1-.25.48l0,.07.87.5v0h0l0,0a5.34,5.34,0,0,0,.28-.53h.06c.13-.34.23-.68.34-1h0v0l-1-.29ZM15,8.45A4.12,4.12,0,0,1,14.64,10l.92.38A5.15,5.15,0,0,0,16,8.51H15Zm.88-3.87-1,.09a8,8,0,0,1-.07,1.77l1,.13c0-.23.06-.46.07-.69h0v0h0v0h0v0h0v0h0v0h0v0h0v0h0v0h0v0h0v0h0V5h0V5h0V5h0v0h0v0h0v0h0q0-.15,0-.3ZM13.73,1.44,13,2.15a4.69,4.69,0,0,0,1.23,1,.62.62,0,0,1,.22.19l.8-.6-.12-.15h-.72a4.84,4.84,0,0,1-.7-.61ZM10.35,0A6,6,0,0,0,9.21.12H9.14a4.71,4.71,0,0,0-.52.14H8.56L8.4.35l.36.93a3.73,3.73,0,0,1,.6-.17,5.07,5.07,0,0,1,1-.11h0a3.65,3.65,0,0,1,1.36.25l.37-.93A4.57,4.57,0,0,0,10.57,0h-.22Z"/></g></g></svg>