<svg id="Layer_1" data-name="Layer 1" xmlns="http://www.w3.org/2000/svg" viewBox="0 0 44.6 34.86"><defs><style>.cls-1{fill:#000000;}</style></defs><title>Artboard 12</title><polygon class="cls-1" points="2.34 29.48 17.03 31.02 17.52 31.07 17.52 28.12 14.61 27.74 9.93 27.12 13.94 26.83 17.52 26.57 17.51 17.68 10.57 17.34 2.34 16.93 2.34 22.48 8.11 23.39 2.34 24.04 2.34 24.65 6.19 24.88 2.34 25.7 2.34 29.48"/><path class="cls-1" d="M2.35,15.55v.39l8.19.4,7,.34V15.55c0-.09,0-.18,0-.27l-2.38-1.19,2.1-1.4C16.31,7.59,13.39,3.8,10,3.75H9.93C7,3.75,4.49,6.46,3.21,10.39L8.11,11,3,11.2A18.35,18.35,0,0,0,2.35,15.55Z"/><polygon class="cls-1" points="42.4 26.66 42.4 33.07 42.4 33.49 44.6 33.36 44.6 17.43 42.39 17.46 42.4 26.66"/><path class="cls-1" d="M44.59,15.25c-.15-5.4-2.6-10-6.12-12.31A21.46,21.46,0,0,1,42.39,15.4v1.06l2.21,0V15.25Z"/><polygon class="cls-1" points="41.4 29.73 39.14 29.45 41.4 28.53 41.4 23.62 41.39 17.47 39.25 17.5 38.57 17.51 38.57 26.35 29.22 26.92 29.22 17.63 28.33 17.64 24.42 17.69 24.43 21.5 27.08 21.82 24.43 22.15 24.43 29.54 28.34 30.12 28.34 30.14 24.43 30.53 24.43 30.67 24.43 31.18 26.14 31.28 24.43 31.79 24.43 33.64 24.43 34.58 41.4 33.55 41.4 32.93 41.4 29.73"/><path class="cls-1" d="M38.9,16.5l2.49,0V15.42a24.69,24.69,0,0,0-.27-3.1l-3.7,0h-.89l.83-.16,3.61-.7c0-.21-.07-.42-.11-.62l-2.19-.25,2-.52A16,16,0,0,0,36,1.78a8.69,8.69,0,0,0-2.45-.37L23.42.81,18.34.51,18,.49l.34.25A14.8,14.8,0,0,1,22.86,7.2l1.71.11,2.71.17,3,.19L27.43,8l-3.36.33-.8.08c.11.35.22.71.32,1.07a25.34,25.34,0,0,1,.84,6v1.28l3.91,0Z"/><path class="cls-1" d="M37.57,25.41V17.76l-7.35.11v8Zm-3.32-6.1a1.42,1.42,0,0,1,.83,2.57v1.85l-1.72.17V21.83a1.42,1.42,0,0,1,.89-2.52Z"/><path class="cls-1" d="M20.17,17.74H19.12l-.6,0V32.18l-.18,0-.5-.05L1.34,30.38,1.37,15c.32-6.93,4-12.29,8.56-12.29h0c4.15,0,7.59,4.51,8.39,10.58.07.56.13,1.13.16,1.71h0v1.69l.62,0h1V15.42A22.75,22.75,0,0,0,18.34,6.8C16.74,3.2,14.25.69,11.43.1l-.79,0a6.37,6.37,0,0,0-.71,0C4.57,0,.2,6.72,0,15.1H0V32.78l19.86,2.08.32,0V17.74Z"/><polygon class="cls-1" points="23.43 30.53 23.42 17.7 22.43 17.71 21.17 17.73 21.18 33.11 21.18 34.78 23.43 34.64 23.43 33.47 23.43 30.53"/><path class="cls-1" d="M23.42,16.7V15.42A24.37,24.37,0,0,0,23,11.34a17,17,0,0,0-4.64-9.25A8.25,8.25,0,0,0,15.56.35,6.35,6.35,0,0,0,14,0c.16.09.33.18.49.28a12.56,12.56,0,0,1,3.88,4.27A22.72,22.72,0,0,1,21.17,15.4v1.33l1.25,0Z"/></svg>