<svg xmlns="http://www.w3.org/2000/svg" viewBox="0 0 17.49 7.1"><defs><style>.cls-1{fill:#231f20;}</style></defs><title>Asset 6</title><g id="Layer_2" data-name="Layer 2"><g id="Layer_1-2" data-name="Layer 1"><path class="cls-1" d="M14,5.44H.5a.5.5,0,0,1-.5-.5V2a.5.5,0,0,1,.5-.5H14a.5.5,0,0,1,0,1H1v2H14a.5.5,0,0,1,0,1Z"/><path class="cls-1" d="M14,7.1a.49.49,0,0,1-.18,0,.5.5,0,0,1-.32-.46V4.94a.5.5,0,0,1,1,0v.4l1.76-1.87L14.53,1.71v.17a.5.5,0,0,1-1,0V.5a.5.5,0,0,1,.85-.35l3,3a.5.5,0,0,1,0,.7l-3,3.15A.5.5,0,0,1,14,7.1Z"/></g></g></svg>