<svg xmlns="http://www.w3.org/2000/svg" viewBox="0 0 19 17.22"><defs><style>.cls-1{fill:#000000;}</style></defs><title>Asset 42</title><g id="Layer_2" data-name="Layer 2"><g id="Layer_1-2" data-name="Layer 1"><path class="cls-1" d="M13.72,15.63c-1.05.86-2,1.51-3.77,0s-3-3.71-4.52-3.77-5.21.75-5.4,0,.57-1.51,1.51-1.51S4.61,11,6.18,9.6s2.76-2.07,3-3.77S8.57.94,9.19.31s1.32-.25,1.51.75,1,5.27,0,7c0,0-.19,3.14.75,3.77,0,0,1.44-2.39,3-3S19.18,8,19,8.84s-.13,1.44-1.51,1.51-3.08.38-4.52,3a6.44,6.44,0,0,1,3-.75,4.28,4.28,0,0,1,3,3c.06.94-.63,1.88-1.51,1.51S16.79,13.11,13.72,15.63Z"/><ellipse class="cls-1" cx="5.72" cy="6.7" rx="1.88" ry="2.49" transform="translate(-2.03 2.51) rotate(-21.1)"/></g></g></svg>