<svg xmlns="http://www.w3.org/2000/svg" viewBox="0 0 20 20">
  <title>readyaction-light</title>
  <g id="2f67f3af-e367-4103-8008-c7a5b64350ee" data-name="readyaction-light">
    <path d="M10.6,15.75l.5-.75H11c-2,0-2-2-3-2s-1,2-3,2a4.94837,4.94837,0,0,0-2.37.56C3.18,12.38,5.37,10,8,10a5.2307,5.2307,0,0,1,4.46,2.96l.61-.91A6.70844,6.70844,0,0,0,10.24,9.5C12.7,8.38,14.47,5.44,14.5,2h1a.5.5,0,0,0,0-1H.5a.5.5,0,0,0,0,1h1c.03,3.44,1.8,6.38,4.26,7.5C3.3,10.62,1.53,13.56,1.5,17H.5a.5.5,0,0,0,0,1H12.99l.9-2.25ZM4,6a1.278,1.278,0,0,0-.45.06A8.43563,8.43563,0,0,1,2.5,2h11a8.45154,8.45154,0,0,1-1.07,4.09A.76387.76387,0,0,0,12,6C10,6,9,7,8,7S6,6,4,6Z" fill="#000000"/>
    <g id="848c7180-131f-46b9-8fab-1f1058a2328f" data-name="Icons new Arranged Names">
      <g id="e1b15c0b-af23-4765-9707-bb65df5ebd85" data-name="87 Lightning">
        <path id="43a843d5-d45a-4513-8bb0-086a5ffec2da" data-name="Rectangle 297 copy" d="M16,9h4l-3,4h3l-7,7,2-5H12Z" fill="#000000"/>
      </g>
    </g>
  </g>
</svg>
