<svg xmlns="http://www.w3.org/2000/svg" viewBox="0 0 20 20">
  <title>search-light</title>
  <g id="fb6ba7de-cd53-4046-9538-ff67505b3329" data-name="search-light">
    <path d="M18.06,18.06a1.49681,1.49681,0,0,1-2.12,0l-2.73-2.73a8.89068,8.89068,0,0,0,2.12-2.12l2.73,2.73A1.4908,1.4908,0,0,1,18.06,18.06Z" fill="#000000"/>
    <g>
      <path d="M8.5,9.5h-1L6.7466,4.97959A1.27069,1.27069,0,0,1,8,3.5H8A1.27069,1.27069,0,0,1,9.2534,4.97959Z" fill="#000000"/>
      <circle cx="8" cy="11.5" r="1" fill="#000000"/>
    </g>
    <path d="M7.99492.01408a7.98592,7.98592,0,1,0,7.991,7.98084A7.98927,7.98927,0,0,0,7.99492.01408Zm5.96282,7.991A5.95775,5.95775,0,1,1,7.99492,2.04225,5.97038,5.97038,0,0,1,13.95775,8.00508Z" fill="#000000"/>
  </g>
</svg>
