<?xml version="1.0" encoding="UTF-8"?>
<svg width="31px" height="38px" viewBox="0 0 31 38" version="1.1" xmlns="http://www.w3.org/2000/svg" xmlns:xlink="http://www.w3.org/1999/xlink">
    <!-- Generator: Sketch 44.1 (41455) - http://www.bohemiancoding.com/sketch -->
    <title>sheeticon</title>
    <desc>Created with Sketch.</desc>
    <defs></defs>
    <g id="Mobile" stroke="none" stroke-width="1" fill="none" fill-rule="evenodd">
        <g id="sheeticon" fill="#666">
            <path d="M0,-0.0003 L0,13.4197 L0,36.7297 L0,37.6797 L30.62,37.6797 L30.62,-0.0003 L0,-0.0003 Z M2,13.4197 L28.62,13.4197 L28.62,2.0007 L2,2.0007 L2,13.4197 Z M2.39,17.6497 L28.22,17.6497 L28.22,15.6497 L2.39,15.6497 L2.39,17.6497 Z M2.39,21.9297 L28.22,21.9297 L28.22,19.9297 L2.39,19.9297 L2.39,21.9297 Z M2.39,26.1997 L28.22,26.1997 L28.22,24.1997 L2.39,24.1997 L2.39,26.1997 Z M2.39,30.4797 L28.22,30.4797 L28.22,28.4797 L2.39,28.4797 L2.39,30.4797 Z M2.39,34.7497 L28.22,34.7497 L28.22,32.7497 L2.39,32.7497 L2.39,34.7497 Z" id="Fill-1"></path>
            <polygon id="Fill-2" points="13.448 6.664 25.793 6.664 25.793 4.664 13.448 4.664"></polygon>
            <polygon id="Fill-3" points="13.448 10.762 25.793 10.762 25.793 8.762 13.448 8.762"></polygon>
            <path d="M7.7065,4.3101 C5.8275,4.3101 4.3035,5.8331 4.3035,7.7131 C4.3035,9.5921 5.8275,11.1151 7.7065,11.1151 C9.5855,11.1151 11.1095,9.5921 11.1095,7.7131 C11.1095,5.8331 9.5855,4.3101 7.7065,4.3101" id="Fill-4"></path>
        </g>
    </g>
</svg>