<svg id="Layer_1" data-name="Layer 1" xmlns="http://www.w3.org/2000/svg" viewBox="0 0 31.83 43.12"><defs><style>.cls-1{fill:#000000;}</style></defs><title>Artboard 11</title><path class="cls-1" d="M31.55,33.15c-2.56-3.95-.19-6.42-.49-8.72a11.28,11.28,0,0,0-1.68-3.65h0c-1.3-2.1-2.93-4.21-3.26-4.73-1-1.5-.69-2.47-1.58-2.87s-1.94,2.06-1.86,3.26c.12,2,1.69,4.21,2,4.75a3.35,3.35,0,0,1-.2,2.53c-.43,1.21-1.61,1-3.11.36a25,25,0,0,1-6-4.92c-1.56-1.75-4-6.8-4.36-7.7S9.24,9,8.58,11.63c-.7,2.82,1.77,7.24,3.32,9.15s1.21,2.87.82,3.27-2.53-.77-3.84-1.85S5.76,18,5.12,16.86a5.27,5.27,0,0,0-2.41-2l-.22,0h0a1.38,1.38,0,0,0-.36.06H2a1.17,1.17,0,0,0-.36.2l0,0h0a1.07,1.07,0,0,0-.3,1.1,55.91,55.91,0,0,0,3.41,7.69c.35.41,4.71,3.58,4.72,3.91s.19.13-1.22-.66a22.31,22.31,0,0,1-4.8-3.87A13.17,13.17,0,0,0,1.8,21c-.33-.24-1.07-.71-1.62,0s.38,2.53.88,3.2A35.75,35.75,0,0,0,3.66,28a50.44,50.44,0,0,0,5.23,3.66c.49.26,1.38.5,1.27.92s-2.3-1-3-1.24a28.27,28.27,0,0,1-3.23-2.45c-.4-.27-1.06.06-1.42.38s.14,1.12,1.54,2.86,8.62,5,9.76,5.5,5.82,3.79,8.5,5.34S33.45,36.08,31.55,33.15Z"/><path class="cls-1" d="M2.88,13.85a8.17,8.17,0,0,1,.39-2.73,11.37,11.37,0,0,0,1.87,2.94L6.58,15.4l-.37-1.94c0-.06-1-5.44,2.15-8.57-.18,1.24-.18,2.8.68,3.69l.19.19H9.5A6,6,0,0,0,14.06,6.7,5.73,5.73,0,0,0,14.78,2a4.61,4.61,0,0,1,1.88,1.85c.74,1.39.68,3.22-.16,5.44a3.56,3.56,0,0,0,.27,3.61,2.13,2.13,0,0,0,2,.76A2.3,2.3,0,0,0,20.53,12a7.18,7.18,0,0,0,.21-1.68,9.14,9.14,0,0,1,1.13-4.63,5.79,5.79,0,0,0,.79,5l.88,1.06.26-1.36a4.25,4.25,0,0,1,.87-1.77A10.29,10.29,0,0,0,27.56,15a7.27,7.27,0,0,1,1.74,3.85c.51.75,1,1.49,1.38,2.18a9.24,9.24,0,0,0-2.16-6.91C25.41,10.69,26,7.63,26,7.5l.26-1.22-1.15.48a4.25,4.25,0,0,0-2.05,2,8.06,8.06,0,0,1,.71-4.61l.76-1.56-1.6.68c-3.16,1.34-3.37,4.9-3.5,7a7.3,7.3,0,0,1-.14,1.34,1,1,0,0,1-.73.76.84.84,0,0,1-.79-.32,2.35,2.35,0,0,1-.05-2.31c1-2.59,1-4.78.08-6.52A6.28,6.28,0,0,0,14,.26L12.86,0l.35,1.09c.68,2.12.62,3.75-.18,4.83a4.52,4.52,0,0,1-3.2,1.53c-.5-.89-.17-2.85.18-4l.51-1.61-1.46.85c-3.56,2.08-4.27,5.9-4.31,8.44-.39-.75-.73-1.51-.9-1.91L3.31,8,2.67,9.2A9.47,9.47,0,0,0,1.56,14a2.34,2.34,0,0,1,.91-.19A1.92,1.92,0,0,1,2.88,13.85Z"/></svg>