<svg xmlns="http://www.w3.org/2000/svg" viewBox="0 0 18 18.06"><defs><style>.cls-1{fill:#231f20;}</style></defs><title>Asset 3</title><g id="Layer_2" data-name="Layer 2"><g id="Layer_1-2" data-name="Layer 1"><path class="cls-1" d="M9,1A8,8,0,1,1,1,9,8,8,0,0,1,9,1M9,0a9,9,0,1,0,9,9A9,9,0,0,0,9,0Z"/><path class="cls-1" d="M9,18.06a.5.5,0,0,1,0-1c2,0,3.65-3.68,3.65-8S11,1,9,1A.5.5,0,0,1,9,0c2.61,0,4.65,4,4.65,9S11.61,18.06,9,18.06Z"/><path class="cls-1" d="M9.48,11.44A18.11,18.11,0,0,1,.28,8.84.5.5,0,0,1,.78,8c9,5.25,16.37.49,16.44.44a.5.5,0,0,1,.56.83A16.25,16.25,0,0,1,9.48,11.44Z"/></g></g></svg>