<svg id="Layer_1" data-name="Layer 1" xmlns="http://www.w3.org/2000/svg" viewBox="0 0 18.65 19.7"><defs><style>.cls-1{fill:#000000;}</style></defs><title>strength_white</title><path class="cls-1" d="M10.67,9.53a4.84,4.84,0,0,0,4.21.89s-.55-2.72-4.21-2.61c0,0,1.43-2.45-1.18-4.87S1.87,0,1.87,0,8.54,3.46,7.79,5.87c0,0-3.17,1.24-3.52,3S3.53,11.56.95,13.23c0,0-1.05,1-.94,1.51s2.68,3.5,3.91,3.41,4-.94,6.13-.46,3.84-3.27,2.38-5.35A18.15,18.15,0,0,1,10.67,9.53Zm-5.2,2.1A5.23,5.23,0,0,1,9.06,8.94C8.52,12.54,5.47,11.63,5.47,11.63Z"/><path class="cls-1" d="M11.92,4.92A3.88,3.88,0,0,1,12,7a4.37,4.37,0,0,1,3.83,3.2l.16.81-.81.16a6.88,6.88,0,0,1-1.37.14h0a6.12,6.12,0,0,1-1-.08l.4.58a4.59,4.59,0,0,1,.1,4.7,4.61,4.61,0,0,1-.5.76c2.3.9,1.51,2.38,3.58,2.38S20.1,7,16.48,5.34C15.64,4.84,13.17,4.8,11.92,4.92Z"/><path class="cls-1" d="M4.36,6.51,6.13,5C4.38,4.84.24.81.37,1,.93,4.07,4.36,6.51,4.36,6.51Z"/></svg>