<svg xmlns="http://www.w3.org/2000/svg" viewBox="0 0 18.16 18.94"><defs><style>.cls-1{fill:#000000;}.cls-2{fill:#242528;}</style></defs><title>Asset 12</title><g id="Layer_2" data-name="Layer 2"><g id="Layer_1-2" data-name="Layer 1"><path class="cls-1" d="M8.82,5.68S6.78,6,6.07,7.09c0,0,1.19,1,2.07.54S9.39,6.46,8.82,5.68Z"/><path class="cls-2" d="M10.41,8.58,1.59,0s.76,7.26,5.77,10.47Z"/><polygon class="cls-2" points="11.33 9.47 15.7 14.68 14 15.54 9.98 10.47 11.33 9.47"/><path class="cls-2" d="M16.29,8.66A24.79,24.79,0,0,0,12,.62S10.82,4,14.15,9.06Z"/><path class="cls-2" d="M16.75,9.63c.19.16,1.4,4.07,1.4,4.07L17,14.57,15.51,10Z"/><polygon class="cls-2" points="15.38 17.8 10.68 14.84 9.6 16.05 14.27 18.94 15.38 17.8"/><path class="cls-2" d="M9.6,14.38,0,11s3.13,5.07,7.72,5.72Z"/></g></g></svg>