<svg xmlns="http://www.w3.org/2000/svg" viewBox="0 0 20 20">
  <title>ddb-icon-action</title>
  <g id="85d22f9f-f62e-4703-9df8-fa143316cc8a" data-name="unarmedstrike-dark">
    <g>
      <path d="M14.5,6.5,11.7066,3.7066a.99927.99927,0,0,0-1.41321,0l-.86462.86462a.49714.49714,0,0,0,.07574.76514L12.5,8.5Z" fill="#383838"/>
      <path d="M7.70721,4.70721a1.00008,1.00008,0,0,0-1.41443,0l-.58356.58356a1.00306,1.00306,0,0,0,0,1.41846L10,11l2.102-1.898Z" fill="#383838"/>
      <path d="M4.713,7.287,3.71271,8.28729a1.00386,1.00386,0,0,0,.00281,1.42255l4.57819,4.55a.99935.99935,0,0,0,1.42969.01672l.582-.582A.9972.9972,0,0,0,10.316,12.295L5.33771,7.2251A.49515.49515,0,0,0,4.713,7.287Z" fill="#383838"/>
      <path d="M7.32745,14.299,4.33771,11.2251A.49515.49515,0,0,0,3.713,11.287l-.9986.9986A.99986.99986,0,0,0,2.7218,13.707L5.29718,16.25a.995.995,0,0,0,1.42957.02319l.5863-.5863A.99169.99169,0,0,0,7.32745,14.299Z" fill="#383838"/>
      <path d="M19.00006,13,19,9,16,6l-5,5c2,2,5-1,5-1v1l-1,1a3.77278,3.77278,0,0,0-.74164,3.2583A2.79838,2.79838,0,0,1,14,12s-1,.99982-3-.00018A1.3853,1.3853,0,0,1,11,14l-1,1a3.0971,3.0971,0,0,1-2,1L7,17l2,2c1,1,4,0,4,0l1,1h5.00049A.99953.99953,0,0,0,20,19.00049V14Z" fill="#383838"/>
      <polygon points="7 0 0 0 0 7 1 1 7 0" fill="#383838"/>
      <polygon points="14 1 2 2 1 14 3 3 14 1" fill="#383838"/>
    </g>
  </g>
</svg>
