<svg xmlns="http://www.w3.org/2000/svg" viewBox="0 0 20 20">
  <title>useobject-light</title>
  <g id="6a5f5f2e-0211-40e6-8922-10a143a178c1" data-name="useobject-light">
    <path d="M8,8,5,11v8h8l3-3V8Zm4,10H6V12h6Zm3-2.41425-2,2V12.41418l2-2ZM13,11H6.41425l2-2H15Z" fill="#000000"/>
    <path d="M-.01,10s4.22559.772,1.16,4.53C1.15,14.53,3,12.85535,3,12a1.95878,1.95878,0,0,0-2-2s2,0,2-3A12.147,12.147,0,0,0,1.24,1.39C2.02,2.56,4.51,6,7,6c2.99,0,3-4.98,3-5,0,.02.01,5,3,5a4.44528,4.44528,0,0,0,3.99-2.96c-.08.45-.63508,4.05962,3,4.79-3.06372-.88618-2.64962-5.77314-2.64962-5.77314S15.17,5,13,5c-1.93,0-3-5-3-5S9,5,7,5C5.35,5,.47.16.47.16S2,4.75,2,7C2,8.84-.01,10-.01,10Z" fill="#000000"/>
  </g>
</svg>
