<svg xmlns="http://www.w3.org/2000/svg" viewBox="0 0 39.8 37.6"><path d="M19.9.9C10 .9 2 8.9 2 18.8c0 9.9 8 17.9 17.9 17.9 9.9 0 17.9-8 17.9-17.9 0-9.9-8-17.9-17.9-17.9zm13.8 17.9c0 2-.4 3.8-1.1 5.5l-7.9-4.6c.1-.3.1-.6.1-1 0-.3 0-.5-.1-.7l7.9-4.6c.7 1.7 1.1 3.5 1.1 5.4zm-27.6 0c0-1.9.4-3.7 1.1-5.3l7.9 4.6c0 .2-.1.5-.1.7 0 .3 0 .6.1 1l-7.9 4.6c-.7-1.8-1.1-3.6-1.1-5.6zM31 10.6l-7.9 4.5c-.4-.4-1-.7-1.6-.9V5.1c3.9.5 7.3 2.5 9.5 5.5zM18.2 5.1v9.1c-.6.2-1.1.5-1.6.9l-7.9-4.5c2.3-3 5.6-5 9.5-5.5zM8.9 27.2l7.9-4.6c.4.3.9.6 1.4.8v9.1c-3.8-.4-7.1-2.4-9.3-5.3zm12.6 5.3v-9.1c.5-.2 1-.4 1.4-.8l7.9 4.6c-2.2 2.9-5.5 4.9-9.3 5.3z" fill="#000000"/></svg>