<svg xmlns="http://www.w3.org/2000/svg" width="21.96997" height="22.38" viewBox="0 0 21.96997 22.38">
  <defs>
    <style>
      .\39 d0348c8-3992-42b6-9386-a6349f6b572f {
        fill: #242528;
      }
    </style>
  </defs>
  <title>ddb-icon-weaponasspellattack</title>
  <g id="f8592f5a-f509-4dab-bec6-4637f5cd7431" data-name="Layer 2">
    <g id="def04ad1-07f1-45a5-8aeb-b49592020d07" data-name="Layer 1">
      <polygon class="9d0348c8-3992-42b6-9386-a6349f6b572f" points="14.28 2.7 14.22 2.76 14.26 2.61 14.28 2.7"/>
      <polygon class="9d0348c8-3992-42b6-9386-a6349f6b572f" points="13.81 7.36 14.26 5.53 14.71 7.36 16.3 7.86 14.77 8.13 14.26 10.01 13.76 8.13 12.88 7.97 12.24 7.86 13.02 7.61 13.81 7.36"/>
      <polygon class="9d0348c8-3992-42b6-9386-a6349f6b572f" points="10.79 8.33 12.61 8.65 12.29 9.47 10.79 8.33"/>
      <polygon class="9d0348c8-3992-42b6-9386-a6349f6b572f" points="7.98 14.83 10.02 15.48 8.05 15.82 7.4 18.24 6.75 15.82 4.81 15.48 6.82 14.83 6.86 14.67 7.4 12.49 7.87 14.37 7.98 14.83"/>
      <path class="9d0348c8-3992-42b6-9386-a6349f6b572f" d="M.7,15.79.75,15.8l-.3.05,3.69-3.11L.15,9.35H4.26L0,0,5.52,4.58,4.6,1.05,6.74,2.8,8.18.43,9.19,4.29,12.58.98,11.27,5.83l2.95-3.07-.99,4.05-3.11,1L7.29,5.65a.92681.92681,0,0,0-.59-.21,1.00167,1.00167,0,0,0-.84,1.57L7.24,8.99,5.99,14.08Z"/>
      <polygon class="9d0348c8-3992-42b6-9386-a6349f6b572f" points="7.71 9.66 10.46 13.62 8.84 14.09 8.8 14.08 7.71 9.66"/>
      <polygon class="9d0348c8-3992-42b6-9386-a6349f6b572f" points="21.97 21.03 21.27 21.68 20.63 22.38 17.31 18.99 15.09 21.25 13.97 20.44 16.02 18.41 13.98 15.83 13.87 15.69 11.18 12.28 6.59 6.47 11.75 10.83 18.17 16.27 20.04 14.38 20.85 15.49 18.58 17.72 21.97 21.03"/>
      <polygon class="9d0348c8-3992-42b6-9386-a6349f6b572f" points="14.55 3.76 14.28 2.7 15.44 1.5 14.55 3.76"/>
    </g>
  </g>
</svg>
