<?xml version="1.0" encoding="utf-8"?>
<!-- Generator: Adobe Illustrator 20.0.0, SVG Export Plug-In . SVG Version: 6.00 Build 0)  -->
<svg version="1.1" id="Layer_1" xmlns="http://www.w3.org/2000/svg" xmlns:xlink="http://www.w3.org/1999/xlink" x="0px" y="0px"
	 viewBox="0 0 18.6 19.8" style="enable-background:new 0 0 18.6 19.8;" xml:space="preserve">
<style type="text/css">
	.st0{fill:#FFFFFF;}
</style>
<g>
	<path class="st0" d="M1.9,7.8c0.4,0.2,0.7,0.4,1,0.7c1.3-0.2,2.9-0.2,3.7-3.2C7,3.7,7.9,2.8,8.9,2.2c-0.3,0-0.5-0.1-0.8-0.1
		c0.6-0.3,0.7-0.6,0.7-0.6C8.5,1.7,8.3,1.6,8.3,1.6C9,1.3,9.2,1,9.2,1C8.8,1.1,8.8,1,8.8,1c0.5-0.2,0.7-0.5,0.7-0.5
		C9.3,0.5,9,0.7,9,0.7C9.3,0.4,10.2,0,10.2,0C7.2-0.2,5,1.7,4.1,2.7c-1.9,1-2.7,2.9-2.5,4.9L1.9,7.8z"/>
	<path class="st0" d="M7.7,6.2c-0.1,0.4-0.2,0.7-0.3,1c0,0,0.1,0,0.1,0c0.6,0,1.7,0.5,1.7,1.1S8.3,10,7.7,10c-0.5,0-1.3-0.6-1.4-1.1
		C5.7,9.5,5,9.4,4.5,9.4C4.9,10.1,4.6,11,4.6,11l0.3,0.3l-0.6,0.1l0.1,0.2l0,0c0,0,2.7,1.6,4.7,1.4c1.9-0.2,2.5-2.2,2.6-2.3l0.1-0.5
		l0.2,0.4c0.1,0.2,0.3,0.4,0.4,0.6c-0.2-0.7-0.6-1.4-0.6-1.4l0.3-0.2C12.1,9.3,12,9.1,12,9.1l0.3-0.2c-0.2-0.4-0.4-0.6-0.5-0.6
		l-1.2-1.1l0.8,0.4l0.2-0.3c0,0,0,0,0.1,0c0.1,0,0.2,0.1,0.3,0.1c-0.4-0.3-0.6-0.5-0.6-0.5l-0.8-0.7l0.9,0.3c-1-0.6-2.5-1.2-3.2-1.4
		l0.1-0.2C8,5.2,7.8,5.6,7.7,6.2z"/>
	<path class="st0" d="M2.4,11.4c0,0,0-0.9-0.4-1.7C1.9,9.4,1.8,9.2,1.6,9C1.4,8.8,1.2,8.6,0.9,8.5c0,0-1.7,2.3-0.3,4.6
		c0.1,0.1,0.2,0.3,0.3,0.4c0,0,0-0.3,0.2-0.7C1.2,12.2,1.6,11.5,2.4,11.4z"/>
	<path class="st0" d="M18,14.3c0,0,0.2,0.1,0.5,0.5c0,0-0.3-2.5-1.8-3.6c0,0,0.8,0,1.2,0.5c0,0-0.2-1.4-1.1-1.9c0,0,0.7,0,0.9,0.2
		c0,0-0.4-1.6-1.7-2.1c0,0,0.6,0,0.7,0.2c0,0-0.2-1.4-2.2-2.2c0,0,0.6,0,0.9,0.2l-0.6-0.4c0,0-0.6-0.7-1.6-1.5
		c0.5-0.2,1.1-0.3,1.1-0.3c-0.2,0-0.3-0.2-0.3-0.2c0.4,0.1,0.9-0.1,0.9-0.1c-0.1,0-0.3-0.1-0.3-0.1c1.1,0,1.4-0.4,1.4-0.4
		c-0.4,0-0.7-0.2-0.7-0.2c1.1,0,1.5-0.4,1.5-0.4c-0.6,0-0.6-0.2-0.6-0.2c0.8,0.1,1.2-0.2,1.2-0.2c-0.3-0.1-0.7,0-0.7,0
		c0.5-0.3,1.9-0.3,1.9-0.3c-5.3-2.7-9.7,0.8-9.7,0.8s0,0,0,0C8.5,3,8.2,3.2,7.9,3.6c0.7,0.3,4.6,1.8,5.4,2.7l0.5,0.6l-1.1-0.3
		c0.2,0.1,0.3,0.3,0.5,0.5l0.5,0.5l-0.8-0.1c0.1,0.1,0.1,0.1,0.2,0.2l0.3,0.4l-0.5,0c0,0,0,0,0,0c0.2,0.3,0.5,0.7,0.7,1.3l0.3,0.6
		l-0.6-0.3c0,0-0.1,0-0.2-0.1c0,0.2,0.1,0.4,0.1,0.6l0,0.5l-0.2-0.1c0.2,0.6,0.5,1.3,0.6,1.8l0.1,0.7l-0.5-0.4c0,0-0.6-0.5-1-1
		c-0.4,0.8-1.4,2.4-3.5,2.6c-0.2,0-0.4,0-0.6,0c-2.1,0-4.4-1.1-5.3-1.6c-0.3-0.1-0.7-0.2-1-0.2c-0.2,0.4-0.3,1-0.3,1l-0.2,1.7l0,0
		c0.2,1.2,1.3,3,1.3,3C3,19,4,19.5,4,19.5c-0.4-0.5-0.4-1.4-0.4-1.4c1.5,1.6,3.2,1.6,3.2,1.6c-0.5-0.8-0.1-1.7-0.1-1.7
		c0.5,1.2,1.9,1.6,1.9,1.6c0.7-1,0.4-1.7,0.4-1.7c1.1,1.7,4.1,1.8,4.1,1.8c-0.6-1-0.3-2-0.3-2c0.5,1.4,2.6,1.8,2.6,1.8
		c-0.4-0.6-0.3-1.4-0.3-1.4c0.5,0.8,1.6,0.8,1.6,0.8c-0.6-0.6-0.8-2.2-0.8-2.2c1.5,1.3,1.4,3.1,1.4,3.1c0.9-0.4,1.1-1,1.2-1.3l0,0
		c0,0,0,0,0,0c0-0.2,0-0.3,0-0.3l0,0C18.7,17.2,18.7,15.9,18,14.3z"/>
</g>
</svg>
